<svg xmlns="http://www.w3.org/2000/svg" width="1000" height="650" viewBox="0 0 1000 650">
    <rect width="1000" height="650" fill="#86a95b"/>
    <path d="M-20 525C150 480 242 610 415 548c150-54 255-26 385 50 100 58 170 38 240 14v74H-20z" fill="#7f9f53" opacity=".9"/>
    <path d="M80 70c120-25 252-8 352 26 134 45 314 12 506-36v88c-222 52-389 60-530 18C287 130 175 120 70 143z" fill="#93b765" opacity=".8"/>
    <path d="M0 360c145-70 318-80 515-36 178 40 316 15 485-55v75c-154 66-332 96-510 52-190-47-345-31-490 51z" fill="#769b55" opacity=".55"/>
    <g fill="#6f8f43" opacity=".5">
      <ellipse cx="130" cy="100" rx="42" ry="14"/><ellipse cx="388" cy="210" rx="55" ry="16"/>
      <ellipse cx="650" cy="88" rx="46" ry="13"/><ellipse cx="805" cy="535" rx="66" ry="18"/>
      <ellipse cx="280" cy="520" rx="72" ry="17"/><ellipse cx="555" cy="455" rx="55" ry="14"/>
    </g>
    <g stroke="#e6c38a" stroke-width="10" stroke-linecap="round" opacity=".25">
      <path d="M140 662C255 520 325 455 475 402"/>
      <path d="M475 402C620 350 733 282 867 210"/>
    </g>
    <g opacity=".45">
      <circle cx="10" cy="15" r="2.2" fill="#f3e58f"/><circle cx="137" cy="98" r="1.6" fill="#6d9740"/><circle cx="264" cy="181" r="1.6" fill="#6d9740"/><circle cx="391" cy="264" r="1.6" fill="#d8e9a5"/><circle cx="518" cy="347" r="1.6" fill="#6d9740"/><circle cx="645" cy="430" r="2.2" fill="#f3e58f"/><circle cx="772" cy="513" r="1.6" fill="#d8e9a5"/><circle cx="899" cy="596" r="1.6" fill="#6d9740"/><circle cx="46" cy="59" r="1.6" fill="#6d9740"/><circle cx="173" cy="142" r="1.6" fill="#d8e9a5"/><circle cx="300" cy="225" r="2.2" fill="#f3e58f"/><circle cx="427" cy="308" r="1.6" fill="#6d9740"/><circle cx="554" cy="391" r="1.6" fill="#d8e9a5"/><circle cx="681" cy="474" r="1.6" fill="#6d9740"/><circle cx="808" cy="557" r="1.6" fill="#6d9740"/><circle cx="935" cy="20" r="2.2" fill="#f3e58f"/><circle cx="82" cy="103" r="1.6" fill="#6d9740"/><circle cx="209" cy="186" r="1.6" fill="#6d9740"/><circle cx="336" cy="269" r="1.6" fill="#d8e9a5"/><circle cx="463" cy="352" r="1.6" fill="#6d9740"/><circle cx="590" cy="435" r="2.2" fill="#f3e58f"/><circle cx="717" cy="518" r="1.6" fill="#d8e9a5"/><circle cx="844" cy="601" r="1.6" fill="#6d9740"/><circle cx="971" cy="64" r="1.6" fill="#6d9740"/><circle cx="118" cy="147" r="1.6" fill="#d8e9a5"/><circle cx="245" cy="230" r="2.2" fill="#f3e58f"/><circle cx="372" cy="313" r="1.6" fill="#6d9740"/><circle cx="499" cy="396" r="1.6" fill="#d8e9a5"/><circle cx="626" cy="479" r="1.6" fill="#6d9740"/><circle cx="753" cy="562" r="1.6" fill="#6d9740"/><circle cx="880" cy="25" r="2.2" fill="#f3e58f"/><circle cx="27" cy="108" r="1.6" fill="#6d9740"/><circle cx="154" cy="191" r="1.6" fill="#6d9740"/><circle cx="281" cy="274" r="1.6" fill="#d8e9a5"/><circle cx="408" cy="357" r="1.6" fill="#6d9740"/><circle cx="535" cy="440" r="2.2" fill="#f3e58f"/><circle cx="662" cy="523" r="1.6" fill="#d8e9a5"/><circle cx="789" cy="606" r="1.6" fill="#6d9740"/><circle cx="916" cy="69" r="1.6" fill="#6d9740"/><circle cx="63" cy="152" r="1.6" fill="#d8e9a5"/><circle cx="190" cy="235" r="2.2" fill="#f3e58f"/><circle cx="317" cy="318" r="1.6" fill="#6d9740"/><circle cx="444" cy="401" r="1.6" fill="#d8e9a5"/><circle cx="571" cy="484" r="1.6" fill="#6d9740"/><circle cx="698" cy="567" r="1.6" fill="#6d9740"/><circle cx="825" cy="30" r="2.2" fill="#f3e58f"/><circle cx="952" cy="113" r="1.6" fill="#6d9740"/><circle cx="99" cy="196" r="1.6" fill="#6d9740"/><circle cx="226" cy="279" r="1.6" fill="#d8e9a5"/><circle cx="353" cy="362" r="1.6" fill="#6d9740"/><circle cx="480" cy="445" r="2.2" fill="#f3e58f"/><circle cx="607" cy="528" r="1.6" fill="#d8e9a5"/><circle cx="734" cy="611" r="1.6" fill="#6d9740"/><circle cx="861" cy="74" r="1.6" fill="#6d9740"/><circle cx="988" cy="157" r="1.6" fill="#d8e9a5"/><circle cx="135" cy="240" r="2.2" fill="#f3e58f"/><circle cx="262" cy="323" r="1.6" fill="#6d9740"/><circle cx="389" cy="406" r="1.6" fill="#d8e9a5"/><circle cx="516" cy="489" r="1.6" fill="#6d9740"/><circle cx="643" cy="572" r="1.6" fill="#6d9740"/><circle cx="770" cy="35" r="2.2" fill="#f3e58f"/><circle cx="897" cy="118" r="1.6" fill="#6d9740"/><circle cx="44" cy="201" r="1.6" fill="#6d9740"/><circle cx="171" cy="284" r="1.6" fill="#d8e9a5"/><circle cx="298" cy="367" r="1.6" fill="#6d9740"/><circle cx="425" cy="450" r="2.2" fill="#f3e58f"/><circle cx="552" cy="533" r="1.6" fill="#d8e9a5"/><circle cx="679" cy="616" r="1.6" fill="#6d9740"/><circle cx="806" cy="79" r="1.6" fill="#6d9740"/><circle cx="933" cy="162" r="1.6" fill="#d8e9a5"/><circle cx="80" cy="245" r="2.2" fill="#f3e58f"/><circle cx="207" cy="328" r="1.6" fill="#6d9740"/><circle cx="334" cy="411" r="1.6" fill="#d8e9a5"/><circle cx="461" cy="494" r="1.6" fill="#6d9740"/><circle cx="588" cy="577" r="1.6" fill="#6d9740"/><circle cx="715" cy="40" r="2.2" fill="#f3e58f"/><circle cx="842" cy="123" r="1.6" fill="#6d9740"/><circle cx="969" cy="206" r="1.6" fill="#6d9740"/><circle cx="116" cy="289" r="1.6" fill="#d8e9a5"/><circle cx="243" cy="372" r="1.6" fill="#6d9740"/>
    </g>
    <g stroke="rgba(255,255,255,.08)" stroke-width="1">
      <path d="M0 0v650"/><path d="M50 0v650"/><path d="M100 0v650"/><path d="M150 0v650"/><path d="M200 0v650"/><path d="M250 0v650"/><path d="M300 0v650"/><path d="M350 0v650"/><path d="M400 0v650"/><path d="M450 0v650"/><path d="M500 0v650"/><path d="M550 0v650"/><path d="M600 0v650"/><path d="M650 0v650"/><path d="M700 0v650"/><path d="M750 0v650"/><path d="M800 0v650"/><path d="M850 0v650"/><path d="M900 0v650"/><path d="M950 0v650"/><path d="M1000 0v650"/>
      <path d="M0 0h1000"/><path d="M0 50h1000"/><path d="M0 100h1000"/><path d="M0 150h1000"/><path d="M0 200h1000"/><path d="M0 250h1000"/><path d="M0 300h1000"/><path d="M0 350h1000"/><path d="M0 400h1000"/><path d="M0 450h1000"/><path d="M0 500h1000"/><path d="M0 550h1000"/><path d="M0 600h1000"/><path d="M0 650h1000"/>
    </g>
  </svg>
