<svg xmlns="http://www.w3.org/2000/svg" width="192" height="384" viewBox="0 0 192 384">
      <defs>
        <filter id="soft" x="-20%" y="-20%" width="140%" height="140%">
          <feDropShadow dx="0" dy="1" stdDeviation="0.6" flood-color="#102018" flood-opacity=".2"/>
        </filter>
      </defs>
      <g filter="url(#soft)">
      <g id="hen_walk_down_0" transform="translate(0 0)">
        
    <g transform="rotate(0 24 24) translate(0 0)">
      <ellipse cx="24" cy="28" rx="12" ry="7" fill="#1b271b" opacity=".18"/>
      
      <g transform="translate(0 0)"><path d="M19 12c-5-5-4-9 2-8 2-5 8-4 8 2 5-2 8 2 5 7" fill="#a8782e" stroke="#25311e" stroke-width="1.4"/></g>
      <ellipse cx="24" cy="22" rx="11" ry="15" fill="#f2d184" stroke="#25311e" stroke-width="1.8"/>
      <path d="M16 22c3 5 9 8 16 2 0 7-4 12-9 13-5-2-8-8-7-15z" fill="#fff3c9" opacity=".78"/>
      <path d="M15 23c-5 4-5 10 2 13 3-4 4-9 2-14z" fill="#c8953f" stroke="#25311e" stroke-width="1.2" opacity=".9"/>
      <path d="M33 23c5 4 5 10-2 13-3-4-4-9-2-14z" fill="#c8953f" stroke="#25311e" stroke-width="1.2" opacity=".9"/>
      <ellipse cx="24" cy="32" rx="8" ry="7" fill="#dfb654" stroke="#25311e" stroke-width="1.6"/>
      <path d="M20 29c0-3 2-5 4-4 1-3 4-2 5 1 1 3-1 5-5 5z" fill="#d74431" stroke="#25311e" stroke-width="1.2"/>
      <path d="M21 36l3 6 3-6" fill="#f1a832" stroke="#25311e" stroke-width="1"/>
      <circle cx="20.5" cy="32" r="1.3" fill="#182018"/>
      <circle cx="27.5" cy="32" r="1.3" fill="#182018"/>
      <path d="M20 40l-6 4" stroke="#b36a21" stroke-width="2" stroke-linecap="round"/>
      <path d="M28 40l6 4" stroke="#b36a21" stroke-width="2" stroke-linecap="round"/>
    </g>
      </g>
      <g id="hen_walk_down_1" transform="translate(48 0)">
        
    <g transform="rotate(0 24 24) translate(0 -1)">
      <ellipse cx="24" cy="28" rx="12" ry="7" fill="#1b271b" opacity=".18"/>
      
      <g transform="translate(0 0)"><path d="M19 12c-5-5-4-9 2-8 2-5 8-4 8 2 5-2 8 2 5 7" fill="#a8782e" stroke="#25311e" stroke-width="1.4"/></g>
      <ellipse cx="24" cy="22" rx="11" ry="15" fill="#f2d184" stroke="#25311e" stroke-width="1.8"/>
      <path d="M16 22c3 5 9 8 16 2 0 7-4 12-9 13-5-2-8-8-7-15z" fill="#fff3c9" opacity=".78"/>
      <path d="M15 23c-5 4-5 10 2 13 3-4 4-9 2-14z" fill="#c8953f" stroke="#25311e" stroke-width="1.2" opacity=".9"/>
      <path d="M33 23c5 4 5 10-2 13-3-4-4-9-2-14z" fill="#c8953f" stroke="#25311e" stroke-width="1.2" opacity=".9"/>
      <ellipse cx="24" cy="31" rx="8" ry="7" fill="#dfb654" stroke="#25311e" stroke-width="1.6"/>
      <path d="M20 29c0-3 2-5 4-4 1-3 4-2 5 1 1 3-1 5-5 5z" fill="#d74431" stroke="#25311e" stroke-width="1.2"/>
      <path d="M21 35l3 6 3-6" fill="#f1a832" stroke="#25311e" stroke-width="1"/>
      <circle cx="20.5" cy="31" r="1.3" fill="#182018"/>
      <circle cx="27.5" cy="31" r="1.3" fill="#182018"/>
      <path d="M20 40l-2 4" stroke="#b36a21" stroke-width="2" stroke-linecap="round"/>
      <path d="M28 41l2 4" stroke="#b36a21" stroke-width="2" stroke-linecap="round"/>
    </g>
      </g>
      <g id="hen_walk_down_2" transform="translate(96 0)">
        
    <g transform="rotate(0 24 24) translate(0 0)">
      <ellipse cx="24" cy="28" rx="12" ry="7" fill="#1b271b" opacity=".18"/>
      
      <g transform="translate(0 0)"><path d="M19 12c-5-5-4-9 2-8 2-5 8-4 8 2 5-2 8 2 5 7" fill="#a8782e" stroke="#25311e" stroke-width="1.4"/></g>
      <ellipse cx="24" cy="22" rx="11" ry="15" fill="#f2d184" stroke="#25311e" stroke-width="1.8"/>
      <path d="M16 22c3 5 9 8 16 2 0 7-4 12-9 13-5-2-8-8-7-15z" fill="#fff3c9" opacity=".78"/>
      <path d="M15 23c-5 4-5 10 2 13 3-4 4-9 2-14z" fill="#c8953f" stroke="#25311e" stroke-width="1.2" opacity=".9"/>
      <path d="M33 23c5 4 5 10-2 13-3-4-4-9-2-14z" fill="#c8953f" stroke="#25311e" stroke-width="1.2" opacity=".9"/>
      <ellipse cx="24" cy="32" rx="8" ry="7" fill="#dfb654" stroke="#25311e" stroke-width="1.6"/>
      <path d="M20 29c0-3 2-5 4-4 1-3 4-2 5 1 1 3-1 5-5 5z" fill="#d74431" stroke="#25311e" stroke-width="1.2"/>
      <path d="M21 36l3 6 3-6" fill="#f1a832" stroke="#25311e" stroke-width="1"/>
      <circle cx="20.5" cy="32" r="1.3" fill="#182018"/>
      <circle cx="27.5" cy="32" r="1.3" fill="#182018"/>
      <path d="M20 40l-6 4" stroke="#b36a21" stroke-width="2" stroke-linecap="round"/>
      <path d="M28 40l6 4" stroke="#b36a21" stroke-width="2" stroke-linecap="round"/>
    </g>
      </g>
      <g id="hen_walk_down_3" transform="translate(144 0)">
        
    <g transform="rotate(0 24 24) translate(0 1)">
      <ellipse cx="24" cy="28" rx="12" ry="7" fill="#1b271b" opacity=".18"/>
      
      <g transform="translate(0 0)"><path d="M19 12c-5-5-4-9 2-8 2-5 8-4 8 2 5-2 8 2 5 7" fill="#a8782e" stroke="#25311e" stroke-width="1.4"/></g>
      <ellipse cx="24" cy="22" rx="11" ry="15" fill="#f2d184" stroke="#25311e" stroke-width="1.8"/>
      <path d="M16 22c3 5 9 8 16 2 0 7-4 12-9 13-5-2-8-8-7-15z" fill="#fff3c9" opacity=".78"/>
      <path d="M15 23c-5 4-5 10 2 13 3-4 4-9 2-14z" fill="#c8953f" stroke="#25311e" stroke-width="1.2" opacity=".9"/>
      <path d="M33 23c5 4 5 10-2 13-3-4-4-9-2-14z" fill="#c8953f" stroke="#25311e" stroke-width="1.2" opacity=".9"/>
      <ellipse cx="24" cy="31" rx="8" ry="7" fill="#dfb654" stroke="#25311e" stroke-width="1.6"/>
      <path d="M20 29c0-3 2-5 4-4 1-3 4-2 5 1 1 3-1 5-5 5z" fill="#d74431" stroke="#25311e" stroke-width="1.2"/>
      <path d="M21 35l3 6 3-6" fill="#f1a832" stroke="#25311e" stroke-width="1"/>
      <circle cx="20.5" cy="31" r="1.3" fill="#182018"/>
      <circle cx="27.5" cy="31" r="1.3" fill="#182018"/>
      <path d="M20 41l-2 4" stroke="#b36a21" stroke-width="2" stroke-linecap="round"/>
      <path d="M28 40l2 4" stroke="#b36a21" stroke-width="2" stroke-linecap="round"/>
    </g>
      </g>
      <g id="hen_walk_left_0" transform="translate(0 48)">
        
    <g transform="rotate(90 24 24) translate(0 0)">
      <ellipse cx="24" cy="28" rx="12" ry="7" fill="#1b271b" opacity=".18"/>
      
      <g transform="translate(0 0)"><path d="M19 12c-5-5-4-9 2-8 2-5 8-4 8 2 5-2 8 2 5 7" fill="#a8782e" stroke="#25311e" stroke-width="1.4"/></g>
      <ellipse cx="24" cy="22" rx="11" ry="15" fill="#f2d184" stroke="#25311e" stroke-width="1.8"/>
      <path d="M16 22c3 5 9 8 16 2 0 7-4 12-9 13-5-2-8-8-7-15z" fill="#fff3c9" opacity=".78"/>
      <path d="M15 23c-5 4-5 10 2 13 3-4 4-9 2-14z" fill="#c8953f" stroke="#25311e" stroke-width="1.2" opacity=".9"/>
      <path d="M33 23c5 4 5 10-2 13-3-4-4-9-2-14z" fill="#c8953f" stroke="#25311e" stroke-width="1.2" opacity=".9"/>
      <ellipse cx="24" cy="32" rx="8" ry="7" fill="#dfb654" stroke="#25311e" stroke-width="1.6"/>
      <path d="M20 29c0-3 2-5 4-4 1-3 4-2 5 1 1 3-1 5-5 5z" fill="#d74431" stroke="#25311e" stroke-width="1.2"/>
      <path d="M21 36l3 6 3-6" fill="#f1a832" stroke="#25311e" stroke-width="1"/>
      <circle cx="20.5" cy="32" r="1.3" fill="#182018"/>
      <circle cx="27.5" cy="32" r="1.3" fill="#182018"/>
      <path d="M20 40l-6 4" stroke="#b36a21" stroke-width="2" stroke-linecap="round"/>
      <path d="M28 40l6 4" stroke="#b36a21" stroke-width="2" stroke-linecap="round"/>
    </g>
      </g>
      <g id="hen_walk_left_1" transform="translate(48 48)">
        
    <g transform="rotate(90 24 24) translate(0 -1)">
      <ellipse cx="24" cy="28" rx="12" ry="7" fill="#1b271b" opacity=".18"/>
      
      <g transform="translate(0 0)"><path d="M19 12c-5-5-4-9 2-8 2-5 8-4 8 2 5-2 8 2 5 7" fill="#a8782e" stroke="#25311e" stroke-width="1.4"/></g>
      <ellipse cx="24" cy="22" rx="11" ry="15" fill="#f2d184" stroke="#25311e" stroke-width="1.8"/>
      <path d="M16 22c3 5 9 8 16 2 0 7-4 12-9 13-5-2-8-8-7-15z" fill="#fff3c9" opacity=".78"/>
      <path d="M15 23c-5 4-5 10 2 13 3-4 4-9 2-14z" fill="#c8953f" stroke="#25311e" stroke-width="1.2" opacity=".9"/>
      <path d="M33 23c5 4 5 10-2 13-3-4-4-9-2-14z" fill="#c8953f" stroke="#25311e" stroke-width="1.2" opacity=".9"/>
      <ellipse cx="24" cy="31" rx="8" ry="7" fill="#dfb654" stroke="#25311e" stroke-width="1.6"/>
      <path d="M20 29c0-3 2-5 4-4 1-3 4-2 5 1 1 3-1 5-5 5z" fill="#d74431" stroke="#25311e" stroke-width="1.2"/>
      <path d="M21 35l3 6 3-6" fill="#f1a832" stroke="#25311e" stroke-width="1"/>
      <circle cx="20.5" cy="31" r="1.3" fill="#182018"/>
      <circle cx="27.5" cy="31" r="1.3" fill="#182018"/>
      <path d="M20 40l-2 4" stroke="#b36a21" stroke-width="2" stroke-linecap="round"/>
      <path d="M28 41l2 4" stroke="#b36a21" stroke-width="2" stroke-linecap="round"/>
    </g>
      </g>
      <g id="hen_walk_left_2" transform="translate(96 48)">
        
    <g transform="rotate(90 24 24) translate(0 0)">
      <ellipse cx="24" cy="28" rx="12" ry="7" fill="#1b271b" opacity=".18"/>
      
      <g transform="translate(0 0)"><path d="M19 12c-5-5-4-9 2-8 2-5 8-4 8 2 5-2 8 2 5 7" fill="#a8782e" stroke="#25311e" stroke-width="1.4"/></g>
      <ellipse cx="24" cy="22" rx="11" ry="15" fill="#f2d184" stroke="#25311e" stroke-width="1.8"/>
      <path d="M16 22c3 5 9 8 16 2 0 7-4 12-9 13-5-2-8-8-7-15z" fill="#fff3c9" opacity=".78"/>
      <path d="M15 23c-5 4-5 10 2 13 3-4 4-9 2-14z" fill="#c8953f" stroke="#25311e" stroke-width="1.2" opacity=".9"/>
      <path d="M33 23c5 4 5 10-2 13-3-4-4-9-2-14z" fill="#c8953f" stroke="#25311e" stroke-width="1.2" opacity=".9"/>
      <ellipse cx="24" cy="32" rx="8" ry="7" fill="#dfb654" stroke="#25311e" stroke-width="1.6"/>
      <path d="M20 29c0-3 2-5 4-4 1-3 4-2 5 1 1 3-1 5-5 5z" fill="#d74431" stroke="#25311e" stroke-width="1.2"/>
      <path d="M21 36l3 6 3-6" fill="#f1a832" stroke="#25311e" stroke-width="1"/>
      <circle cx="20.5" cy="32" r="1.3" fill="#182018"/>
      <circle cx="27.5" cy="32" r="1.3" fill="#182018"/>
      <path d="M20 40l-6 4" stroke="#b36a21" stroke-width="2" stroke-linecap="round"/>
      <path d="M28 40l6 4" stroke="#b36a21" stroke-width="2" stroke-linecap="round"/>
    </g>
      </g>
      <g id="hen_walk_left_3" transform="translate(144 48)">
        
    <g transform="rotate(90 24 24) translate(0 1)">
      <ellipse cx="24" cy="28" rx="12" ry="7" fill="#1b271b" opacity=".18"/>
      
      <g transform="translate(0 0)"><path d="M19 12c-5-5-4-9 2-8 2-5 8-4 8 2 5-2 8 2 5 7" fill="#a8782e" stroke="#25311e" stroke-width="1.4"/></g>
      <ellipse cx="24" cy="22" rx="11" ry="15" fill="#f2d184" stroke="#25311e" stroke-width="1.8"/>
      <path d="M16 22c3 5 9 8 16 2 0 7-4 12-9 13-5-2-8-8-7-15z" fill="#fff3c9" opacity=".78"/>
      <path d="M15 23c-5 4-5 10 2 13 3-4 4-9 2-14z" fill="#c8953f" stroke="#25311e" stroke-width="1.2" opacity=".9"/>
      <path d="M33 23c5 4 5 10-2 13-3-4-4-9-2-14z" fill="#c8953f" stroke="#25311e" stroke-width="1.2" opacity=".9"/>
      <ellipse cx="24" cy="31" rx="8" ry="7" fill="#dfb654" stroke="#25311e" stroke-width="1.6"/>
      <path d="M20 29c0-3 2-5 4-4 1-3 4-2 5 1 1 3-1 5-5 5z" fill="#d74431" stroke="#25311e" stroke-width="1.2"/>
      <path d="M21 35l3 6 3-6" fill="#f1a832" stroke="#25311e" stroke-width="1"/>
      <circle cx="20.5" cy="31" r="1.3" fill="#182018"/>
      <circle cx="27.5" cy="31" r="1.3" fill="#182018"/>
      <path d="M20 41l-2 4" stroke="#b36a21" stroke-width="2" stroke-linecap="round"/>
      <path d="M28 40l2 4" stroke="#b36a21" stroke-width="2" stroke-linecap="round"/>
    </g>
      </g>
      <g id="hen_walk_right_0" transform="translate(0 96)">
        
    <g transform="rotate(-90 24 24) translate(0 0)">
      <ellipse cx="24" cy="28" rx="12" ry="7" fill="#1b271b" opacity=".18"/>
      
      <g transform="translate(0 0)"><path d="M19 12c-5-5-4-9 2-8 2-5 8-4 8 2 5-2 8 2 5 7" fill="#a8782e" stroke="#25311e" stroke-width="1.4"/></g>
      <ellipse cx="24" cy="22" rx="11" ry="15" fill="#f2d184" stroke="#25311e" stroke-width="1.8"/>
      <path d="M16 22c3 5 9 8 16 2 0 7-4 12-9 13-5-2-8-8-7-15z" fill="#fff3c9" opacity=".78"/>
      <path d="M15 23c-5 4-5 10 2 13 3-4 4-9 2-14z" fill="#c8953f" stroke="#25311e" stroke-width="1.2" opacity=".9"/>
      <path d="M33 23c5 4 5 10-2 13-3-4-4-9-2-14z" fill="#c8953f" stroke="#25311e" stroke-width="1.2" opacity=".9"/>
      <ellipse cx="24" cy="32" rx="8" ry="7" fill="#dfb654" stroke="#25311e" stroke-width="1.6"/>
      <path d="M20 29c0-3 2-5 4-4 1-3 4-2 5 1 1 3-1 5-5 5z" fill="#d74431" stroke="#25311e" stroke-width="1.2"/>
      <path d="M21 36l3 6 3-6" fill="#f1a832" stroke="#25311e" stroke-width="1"/>
      <circle cx="20.5" cy="32" r="1.3" fill="#182018"/>
      <circle cx="27.5" cy="32" r="1.3" fill="#182018"/>
      <path d="M20 40l-6 4" stroke="#b36a21" stroke-width="2" stroke-linecap="round"/>
      <path d="M28 40l6 4" stroke="#b36a21" stroke-width="2" stroke-linecap="round"/>
    </g>
      </g>
      <g id="hen_walk_right_1" transform="translate(48 96)">
        
    <g transform="rotate(-90 24 24) translate(0 -1)">
      <ellipse cx="24" cy="28" rx="12" ry="7" fill="#1b271b" opacity=".18"/>
      
      <g transform="translate(0 0)"><path d="M19 12c-5-5-4-9 2-8 2-5 8-4 8 2 5-2 8 2 5 7" fill="#a8782e" stroke="#25311e" stroke-width="1.4"/></g>
      <ellipse cx="24" cy="22" rx="11" ry="15" fill="#f2d184" stroke="#25311e" stroke-width="1.8"/>
      <path d="M16 22c3 5 9 8 16 2 0 7-4 12-9 13-5-2-8-8-7-15z" fill="#fff3c9" opacity=".78"/>
      <path d="M15 23c-5 4-5 10 2 13 3-4 4-9 2-14z" fill="#c8953f" stroke="#25311e" stroke-width="1.2" opacity=".9"/>
      <path d="M33 23c5 4 5 10-2 13-3-4-4-9-2-14z" fill="#c8953f" stroke="#25311e" stroke-width="1.2" opacity=".9"/>
      <ellipse cx="24" cy="31" rx="8" ry="7" fill="#dfb654" stroke="#25311e" stroke-width="1.6"/>
      <path d="M20 29c0-3 2-5 4-4 1-3 4-2 5 1 1 3-1 5-5 5z" fill="#d74431" stroke="#25311e" stroke-width="1.2"/>
      <path d="M21 35l3 6 3-6" fill="#f1a832" stroke="#25311e" stroke-width="1"/>
      <circle cx="20.5" cy="31" r="1.3" fill="#182018"/>
      <circle cx="27.5" cy="31" r="1.3" fill="#182018"/>
      <path d="M20 40l-2 4" stroke="#b36a21" stroke-width="2" stroke-linecap="round"/>
      <path d="M28 41l2 4" stroke="#b36a21" stroke-width="2" stroke-linecap="round"/>
    </g>
      </g>
      <g id="hen_walk_right_2" transform="translate(96 96)">
        
    <g transform="rotate(-90 24 24) translate(0 0)">
      <ellipse cx="24" cy="28" rx="12" ry="7" fill="#1b271b" opacity=".18"/>
      
      <g transform="translate(0 0)"><path d="M19 12c-5-5-4-9 2-8 2-5 8-4 8 2 5-2 8 2 5 7" fill="#a8782e" stroke="#25311e" stroke-width="1.4"/></g>
      <ellipse cx="24" cy="22" rx="11" ry="15" fill="#f2d184" stroke="#25311e" stroke-width="1.8"/>
      <path d="M16 22c3 5 9 8 16 2 0 7-4 12-9 13-5-2-8-8-7-15z" fill="#fff3c9" opacity=".78"/>
      <path d="M15 23c-5 4-5 10 2 13 3-4 4-9 2-14z" fill="#c8953f" stroke="#25311e" stroke-width="1.2" opacity=".9"/>
      <path d="M33 23c5 4 5 10-2 13-3-4-4-9-2-14z" fill="#c8953f" stroke="#25311e" stroke-width="1.2" opacity=".9"/>
      <ellipse cx="24" cy="32" rx="8" ry="7" fill="#dfb654" stroke="#25311e" stroke-width="1.6"/>
      <path d="M20 29c0-3 2-5 4-4 1-3 4-2 5 1 1 3-1 5-5 5z" fill="#d74431" stroke="#25311e" stroke-width="1.2"/>
      <path d="M21 36l3 6 3-6" fill="#f1a832" stroke="#25311e" stroke-width="1"/>
      <circle cx="20.5" cy="32" r="1.3" fill="#182018"/>
      <circle cx="27.5" cy="32" r="1.3" fill="#182018"/>
      <path d="M20 40l-6 4" stroke="#b36a21" stroke-width="2" stroke-linecap="round"/>
      <path d="M28 40l6 4" stroke="#b36a21" stroke-width="2" stroke-linecap="round"/>
    </g>
      </g>
      <g id="hen_walk_right_3" transform="translate(144 96)">
        
    <g transform="rotate(-90 24 24) translate(0 1)">
      <ellipse cx="24" cy="28" rx="12" ry="7" fill="#1b271b" opacity=".18"/>
      
      <g transform="translate(0 0)"><path d="M19 12c-5-5-4-9 2-8 2-5 8-4 8 2 5-2 8 2 5 7" fill="#a8782e" stroke="#25311e" stroke-width="1.4"/></g>
      <ellipse cx="24" cy="22" rx="11" ry="15" fill="#f2d184" stroke="#25311e" stroke-width="1.8"/>
      <path d="M16 22c3 5 9 8 16 2 0 7-4 12-9 13-5-2-8-8-7-15z" fill="#fff3c9" opacity=".78"/>
      <path d="M15 23c-5 4-5 10 2 13 3-4 4-9 2-14z" fill="#c8953f" stroke="#25311e" stroke-width="1.2" opacity=".9"/>
      <path d="M33 23c5 4 5 10-2 13-3-4-4-9-2-14z" fill="#c8953f" stroke="#25311e" stroke-width="1.2" opacity=".9"/>
      <ellipse cx="24" cy="31" rx="8" ry="7" fill="#dfb654" stroke="#25311e" stroke-width="1.6"/>
      <path d="M20 29c0-3 2-5 4-4 1-3 4-2 5 1 1 3-1 5-5 5z" fill="#d74431" stroke="#25311e" stroke-width="1.2"/>
      <path d="M21 35l3 6 3-6" fill="#f1a832" stroke="#25311e" stroke-width="1"/>
      <circle cx="20.5" cy="31" r="1.3" fill="#182018"/>
      <circle cx="27.5" cy="31" r="1.3" fill="#182018"/>
      <path d="M20 41l-2 4" stroke="#b36a21" stroke-width="2" stroke-linecap="round"/>
      <path d="M28 40l2 4" stroke="#b36a21" stroke-width="2" stroke-linecap="round"/>
    </g>
      </g>
      <g id="hen_walk_up_0" transform="translate(0 144)">
        
    <g transform="rotate(180 24 24) translate(0 0)">
      <ellipse cx="24" cy="28" rx="12" ry="7" fill="#1b271b" opacity=".18"/>
      
      <g transform="translate(0 0)"><path d="M19 12c-5-5-4-9 2-8 2-5 8-4 8 2 5-2 8 2 5 7" fill="#a8782e" stroke="#25311e" stroke-width="1.4"/></g>
      <ellipse cx="24" cy="22" rx="11" ry="15" fill="#f2d184" stroke="#25311e" stroke-width="1.8"/>
      <path d="M16 22c3 5 9 8 16 2 0 7-4 12-9 13-5-2-8-8-7-15z" fill="#fff3c9" opacity=".78"/>
      <path d="M15 23c-5 4-5 10 2 13 3-4 4-9 2-14z" fill="#c8953f" stroke="#25311e" stroke-width="1.2" opacity=".9"/>
      <path d="M33 23c5 4 5 10-2 13-3-4-4-9-2-14z" fill="#c8953f" stroke="#25311e" stroke-width="1.2" opacity=".9"/>
      <ellipse cx="24" cy="32" rx="8" ry="7" fill="#dfb654" stroke="#25311e" stroke-width="1.6"/>
      <path d="M20 29c0-3 2-5 4-4 1-3 4-2 5 1 1 3-1 5-5 5z" fill="#d74431" stroke="#25311e" stroke-width="1.2"/>
      <path d="M21 36l3 6 3-6" fill="#f1a832" stroke="#25311e" stroke-width="1"/>
      <circle cx="20.5" cy="32" r="1.3" fill="#182018"/>
      <circle cx="27.5" cy="32" r="1.3" fill="#182018"/>
      <path d="M20 40l-6 4" stroke="#b36a21" stroke-width="2" stroke-linecap="round"/>
      <path d="M28 40l6 4" stroke="#b36a21" stroke-width="2" stroke-linecap="round"/>
    </g>
      </g>
      <g id="hen_walk_up_1" transform="translate(48 144)">
        
    <g transform="rotate(180 24 24) translate(0 -1)">
      <ellipse cx="24" cy="28" rx="12" ry="7" fill="#1b271b" opacity=".18"/>
      
      <g transform="translate(0 0)"><path d="M19 12c-5-5-4-9 2-8 2-5 8-4 8 2 5-2 8 2 5 7" fill="#a8782e" stroke="#25311e" stroke-width="1.4"/></g>
      <ellipse cx="24" cy="22" rx="11" ry="15" fill="#f2d184" stroke="#25311e" stroke-width="1.8"/>
      <path d="M16 22c3 5 9 8 16 2 0 7-4 12-9 13-5-2-8-8-7-15z" fill="#fff3c9" opacity=".78"/>
      <path d="M15 23c-5 4-5 10 2 13 3-4 4-9 2-14z" fill="#c8953f" stroke="#25311e" stroke-width="1.2" opacity=".9"/>
      <path d="M33 23c5 4 5 10-2 13-3-4-4-9-2-14z" fill="#c8953f" stroke="#25311e" stroke-width="1.2" opacity=".9"/>
      <ellipse cx="24" cy="31" rx="8" ry="7" fill="#dfb654" stroke="#25311e" stroke-width="1.6"/>
      <path d="M20 29c0-3 2-5 4-4 1-3 4-2 5 1 1 3-1 5-5 5z" fill="#d74431" stroke="#25311e" stroke-width="1.2"/>
      <path d="M21 35l3 6 3-6" fill="#f1a832" stroke="#25311e" stroke-width="1"/>
      <circle cx="20.5" cy="31" r="1.3" fill="#182018"/>
      <circle cx="27.5" cy="31" r="1.3" fill="#182018"/>
      <path d="M20 40l-2 4" stroke="#b36a21" stroke-width="2" stroke-linecap="round"/>
      <path d="M28 41l2 4" stroke="#b36a21" stroke-width="2" stroke-linecap="round"/>
    </g>
      </g>
      <g id="hen_walk_up_2" transform="translate(96 144)">
        
    <g transform="rotate(180 24 24) translate(0 0)">
      <ellipse cx="24" cy="28" rx="12" ry="7" fill="#1b271b" opacity=".18"/>
      
      <g transform="translate(0 0)"><path d="M19 12c-5-5-4-9 2-8 2-5 8-4 8 2 5-2 8 2 5 7" fill="#a8782e" stroke="#25311e" stroke-width="1.4"/></g>
      <ellipse cx="24" cy="22" rx="11" ry="15" fill="#f2d184" stroke="#25311e" stroke-width="1.8"/>
      <path d="M16 22c3 5 9 8 16 2 0 7-4 12-9 13-5-2-8-8-7-15z" fill="#fff3c9" opacity=".78"/>
      <path d="M15 23c-5 4-5 10 2 13 3-4 4-9 2-14z" fill="#c8953f" stroke="#25311e" stroke-width="1.2" opacity=".9"/>
      <path d="M33 23c5 4 5 10-2 13-3-4-4-9-2-14z" fill="#c8953f" stroke="#25311e" stroke-width="1.2" opacity=".9"/>
      <ellipse cx="24" cy="32" rx="8" ry="7" fill="#dfb654" stroke="#25311e" stroke-width="1.6"/>
      <path d="M20 29c0-3 2-5 4-4 1-3 4-2 5 1 1 3-1 5-5 5z" fill="#d74431" stroke="#25311e" stroke-width="1.2"/>
      <path d="M21 36l3 6 3-6" fill="#f1a832" stroke="#25311e" stroke-width="1"/>
      <circle cx="20.5" cy="32" r="1.3" fill="#182018"/>
      <circle cx="27.5" cy="32" r="1.3" fill="#182018"/>
      <path d="M20 40l-6 4" stroke="#b36a21" stroke-width="2" stroke-linecap="round"/>
      <path d="M28 40l6 4" stroke="#b36a21" stroke-width="2" stroke-linecap="round"/>
    </g>
      </g>
      <g id="hen_walk_up_3" transform="translate(144 144)">
        
    <g transform="rotate(180 24 24) translate(0 1)">
      <ellipse cx="24" cy="28" rx="12" ry="7" fill="#1b271b" opacity=".18"/>
      
      <g transform="translate(0 0)"><path d="M19 12c-5-5-4-9 2-8 2-5 8-4 8 2 5-2 8 2 5 7" fill="#a8782e" stroke="#25311e" stroke-width="1.4"/></g>
      <ellipse cx="24" cy="22" rx="11" ry="15" fill="#f2d184" stroke="#25311e" stroke-width="1.8"/>
      <path d="M16 22c3 5 9 8 16 2 0 7-4 12-9 13-5-2-8-8-7-15z" fill="#fff3c9" opacity=".78"/>
      <path d="M15 23c-5 4-5 10 2 13 3-4 4-9 2-14z" fill="#c8953f" stroke="#25311e" stroke-width="1.2" opacity=".9"/>
      <path d="M33 23c5 4 5 10-2 13-3-4-4-9-2-14z" fill="#c8953f" stroke="#25311e" stroke-width="1.2" opacity=".9"/>
      <ellipse cx="24" cy="31" rx="8" ry="7" fill="#dfb654" stroke="#25311e" stroke-width="1.6"/>
      <path d="M20 29c0-3 2-5 4-4 1-3 4-2 5 1 1 3-1 5-5 5z" fill="#d74431" stroke="#25311e" stroke-width="1.2"/>
      <path d="M21 35l3 6 3-6" fill="#f1a832" stroke="#25311e" stroke-width="1"/>
      <circle cx="20.5" cy="31" r="1.3" fill="#182018"/>
      <circle cx="27.5" cy="31" r="1.3" fill="#182018"/>
      <path d="M20 41l-2 4" stroke="#b36a21" stroke-width="2" stroke-linecap="round"/>
      <path d="M28 40l2 4" stroke="#b36a21" stroke-width="2" stroke-linecap="round"/>
    </g>
      </g>
      <g id="hen_fly_down_0" transform="translate(0 192)">
        
    <g transform="rotate(0 24 24) translate(0 0)">
      <ellipse cx="24" cy="28" rx="12" ry="7" fill="#1b271b" opacity=".18"/>
      <path d="M10 21.333333333333332C3 10 3 36.666666666666664 15 32" fill="#c8953f" stroke="#25311e" stroke-width="1.5" opacity=".96"/>
      <path d="M38 21.333333333333332C45 10 45 36.666666666666664 33 32" fill="#c8953f" stroke="#25311e" stroke-width="1.5" opacity=".96"/>
      <g transform="translate(0 -3)"><path d="M19 12c-5-5-4-9 2-8 2-5 8-4 8 2 5-2 8 2 5 7" fill="#a8782e" stroke="#25311e" stroke-width="1.4"/></g>
      <ellipse cx="24" cy="22" rx="11" ry="15" fill="#f2d184" stroke="#25311e" stroke-width="1.8"/>
      <path d="M16 22c3 5 9 8 16 2 0 7-4 12-9 13-5-2-8-8-7-15z" fill="#fff3c9" opacity=".78"/>
      <path d="M15 23c-5 4-5 10 2 13 3-4 4-9 2-14z" fill="#c8953f" stroke="#25311e" stroke-width="1.2" opacity=".9"/>
      <path d="M33 23c5 4 5 10-2 13-3-4-4-9-2-14z" fill="#c8953f" stroke="#25311e" stroke-width="1.2" opacity=".9"/>
      <ellipse cx="24" cy="31" rx="8" ry="7" fill="#dfb654" stroke="#25311e" stroke-width="1.6"/>
      <path d="M20 29c0-3 2-5 4-4 1-3 4-2 5 1 1 3-1 5-5 5z" fill="#d74431" stroke="#25311e" stroke-width="1.2"/>
      <path d="M21 35l3 6 3-6" fill="#f1a832" stroke="#25311e" stroke-width="1"/>
      <circle cx="20.5" cy="31" r="1.3" fill="#182018"/>
      <circle cx="27.5" cy="31" r="1.3" fill="#182018"/>
      <path d="M20 40l-6 4" stroke="#b36a21" stroke-width="2" stroke-linecap="round"/>
      <path d="M28 40l6 4" stroke="#b36a21" stroke-width="2" stroke-linecap="round"/>
    </g>
      </g>
      <g id="hen_fly_down_1" transform="translate(48 192)">
        
    <g transform="rotate(0 24 24) translate(0 -1)">
      <ellipse cx="24" cy="28" rx="12" ry="7" fill="#1b271b" opacity=".18"/>
      <path d="M10 19.666666666666668C3 5 3 38.333333333333336 15 32" fill="#c8953f" stroke="#25311e" stroke-width="1.5" opacity=".96"/>
      <path d="M38 19.666666666666668C45 5 45 38.333333333333336 33 32" fill="#c8953f" stroke="#25311e" stroke-width="1.5" opacity=".96"/>
      <g transform="translate(0 -3)"><path d="M19 12c-5-5-4-9 2-8 2-5 8-4 8 2 5-2 8 2 5 7" fill="#a8782e" stroke="#25311e" stroke-width="1.4"/></g>
      <ellipse cx="24" cy="22" rx="11" ry="15" fill="#f2d184" stroke="#25311e" stroke-width="1.8"/>
      <path d="M16 22c3 5 9 8 16 2 0 7-4 12-9 13-5-2-8-8-7-15z" fill="#fff3c9" opacity=".78"/>
      <path d="M15 23c-5 4-5 10 2 13 3-4 4-9 2-14z" fill="#c8953f" stroke="#25311e" stroke-width="1.2" opacity=".9"/>
      <path d="M33 23c5 4 5 10-2 13-3-4-4-9-2-14z" fill="#c8953f" stroke="#25311e" stroke-width="1.2" opacity=".9"/>
      <ellipse cx="24" cy="30" rx="8" ry="7" fill="#dfb654" stroke="#25311e" stroke-width="1.6"/>
      <path d="M20 29c0-3 2-5 4-4 1-3 4-2 5 1 1 3-1 5-5 5z" fill="#d74431" stroke="#25311e" stroke-width="1.2"/>
      <path d="M21 34l3 6 3-6" fill="#f1a832" stroke="#25311e" stroke-width="1"/>
      <circle cx="20.5" cy="30" r="1.3" fill="#182018"/>
      <circle cx="27.5" cy="30" r="1.3" fill="#182018"/>
      <path d="M20 40l-2 4" stroke="#b36a21" stroke-width="2" stroke-linecap="round"/>
      <path d="M28 41l2 4" stroke="#b36a21" stroke-width="2" stroke-linecap="round"/>
    </g>
      </g>
      <g id="hen_fly_down_2" transform="translate(96 192)">
        
    <g transform="rotate(0 24 24) translate(0 0)">
      <ellipse cx="24" cy="28" rx="12" ry="7" fill="#1b271b" opacity=".18"/>
      <path d="M10 21.333333333333332C3 10 3 36.666666666666664 15 32" fill="#c8953f" stroke="#25311e" stroke-width="1.5" opacity=".96"/>
      <path d="M38 21.333333333333332C45 10 45 36.666666666666664 33 32" fill="#c8953f" stroke="#25311e" stroke-width="1.5" opacity=".96"/>
      <g transform="translate(0 -3)"><path d="M19 12c-5-5-4-9 2-8 2-5 8-4 8 2 5-2 8 2 5 7" fill="#a8782e" stroke="#25311e" stroke-width="1.4"/></g>
      <ellipse cx="24" cy="22" rx="11" ry="15" fill="#f2d184" stroke="#25311e" stroke-width="1.8"/>
      <path d="M16 22c3 5 9 8 16 2 0 7-4 12-9 13-5-2-8-8-7-15z" fill="#fff3c9" opacity=".78"/>
      <path d="M15 23c-5 4-5 10 2 13 3-4 4-9 2-14z" fill="#c8953f" stroke="#25311e" stroke-width="1.2" opacity=".9"/>
      <path d="M33 23c5 4 5 10-2 13-3-4-4-9-2-14z" fill="#c8953f" stroke="#25311e" stroke-width="1.2" opacity=".9"/>
      <ellipse cx="24" cy="31" rx="8" ry="7" fill="#dfb654" stroke="#25311e" stroke-width="1.6"/>
      <path d="M20 29c0-3 2-5 4-4 1-3 4-2 5 1 1 3-1 5-5 5z" fill="#d74431" stroke="#25311e" stroke-width="1.2"/>
      <path d="M21 35l3 6 3-6" fill="#f1a832" stroke="#25311e" stroke-width="1"/>
      <circle cx="20.5" cy="31" r="1.3" fill="#182018"/>
      <circle cx="27.5" cy="31" r="1.3" fill="#182018"/>
      <path d="M20 40l-6 4" stroke="#b36a21" stroke-width="2" stroke-linecap="round"/>
      <path d="M28 40l6 4" stroke="#b36a21" stroke-width="2" stroke-linecap="round"/>
    </g>
      </g>
      <g id="hen_fly_down_3" transform="translate(144 192)">
        
    <g transform="rotate(0 24 24) translate(0 1)">
      <ellipse cx="24" cy="28" rx="12" ry="7" fill="#1b271b" opacity=".18"/>
      <path d="M10 22.666666666666668C3 14 3 35.333333333333336 15 32" fill="#c8953f" stroke="#25311e" stroke-width="1.5" opacity=".96"/>
      <path d="M38 22.666666666666668C45 14 45 35.333333333333336 33 32" fill="#c8953f" stroke="#25311e" stroke-width="1.5" opacity=".96"/>
      <g transform="translate(0 -3)"><path d="M19 12c-5-5-4-9 2-8 2-5 8-4 8 2 5-2 8 2 5 7" fill="#a8782e" stroke="#25311e" stroke-width="1.4"/></g>
      <ellipse cx="24" cy="22" rx="11" ry="15" fill="#f2d184" stroke="#25311e" stroke-width="1.8"/>
      <path d="M16 22c3 5 9 8 16 2 0 7-4 12-9 13-5-2-8-8-7-15z" fill="#fff3c9" opacity=".78"/>
      <path d="M15 23c-5 4-5 10 2 13 3-4 4-9 2-14z" fill="#c8953f" stroke="#25311e" stroke-width="1.2" opacity=".9"/>
      <path d="M33 23c5 4 5 10-2 13-3-4-4-9-2-14z" fill="#c8953f" stroke="#25311e" stroke-width="1.2" opacity=".9"/>
      <ellipse cx="24" cy="32" rx="8" ry="7" fill="#dfb654" stroke="#25311e" stroke-width="1.6"/>
      <path d="M20 29c0-3 2-5 4-4 1-3 4-2 5 1 1 3-1 5-5 5z" fill="#d74431" stroke="#25311e" stroke-width="1.2"/>
      <path d="M21 36l3 6 3-6" fill="#f1a832" stroke="#25311e" stroke-width="1"/>
      <circle cx="20.5" cy="32" r="1.3" fill="#182018"/>
      <circle cx="27.5" cy="32" r="1.3" fill="#182018"/>
      <path d="M20 41l-2 4" stroke="#b36a21" stroke-width="2" stroke-linecap="round"/>
      <path d="M28 40l2 4" stroke="#b36a21" stroke-width="2" stroke-linecap="round"/>
    </g>
      </g>
      <g id="hen_fly_left_0" transform="translate(0 240)">
        
    <g transform="rotate(90 24 24) translate(0 0)">
      <ellipse cx="24" cy="28" rx="12" ry="7" fill="#1b271b" opacity=".18"/>
      <path d="M10 21.333333333333332C3 10 3 36.666666666666664 15 32" fill="#c8953f" stroke="#25311e" stroke-width="1.5" opacity=".96"/>
      <path d="M38 21.333333333333332C45 10 45 36.666666666666664 33 32" fill="#c8953f" stroke="#25311e" stroke-width="1.5" opacity=".96"/>
      <g transform="translate(0 -3)"><path d="M19 12c-5-5-4-9 2-8 2-5 8-4 8 2 5-2 8 2 5 7" fill="#a8782e" stroke="#25311e" stroke-width="1.4"/></g>
      <ellipse cx="24" cy="22" rx="11" ry="15" fill="#f2d184" stroke="#25311e" stroke-width="1.8"/>
      <path d="M16 22c3 5 9 8 16 2 0 7-4 12-9 13-5-2-8-8-7-15z" fill="#fff3c9" opacity=".78"/>
      <path d="M15 23c-5 4-5 10 2 13 3-4 4-9 2-14z" fill="#c8953f" stroke="#25311e" stroke-width="1.2" opacity=".9"/>
      <path d="M33 23c5 4 5 10-2 13-3-4-4-9-2-14z" fill="#c8953f" stroke="#25311e" stroke-width="1.2" opacity=".9"/>
      <ellipse cx="24" cy="31" rx="8" ry="7" fill="#dfb654" stroke="#25311e" stroke-width="1.6"/>
      <path d="M20 29c0-3 2-5 4-4 1-3 4-2 5 1 1 3-1 5-5 5z" fill="#d74431" stroke="#25311e" stroke-width="1.2"/>
      <path d="M21 35l3 6 3-6" fill="#f1a832" stroke="#25311e" stroke-width="1"/>
      <circle cx="20.5" cy="31" r="1.3" fill="#182018"/>
      <circle cx="27.5" cy="31" r="1.3" fill="#182018"/>
      <path d="M20 40l-6 4" stroke="#b36a21" stroke-width="2" stroke-linecap="round"/>
      <path d="M28 40l6 4" stroke="#b36a21" stroke-width="2" stroke-linecap="round"/>
    </g>
      </g>
      <g id="hen_fly_left_1" transform="translate(48 240)">
        
    <g transform="rotate(90 24 24) translate(0 -1)">
      <ellipse cx="24" cy="28" rx="12" ry="7" fill="#1b271b" opacity=".18"/>
      <path d="M10 19.666666666666668C3 5 3 38.333333333333336 15 32" fill="#c8953f" stroke="#25311e" stroke-width="1.5" opacity=".96"/>
      <path d="M38 19.666666666666668C45 5 45 38.333333333333336 33 32" fill="#c8953f" stroke="#25311e" stroke-width="1.5" opacity=".96"/>
      <g transform="translate(0 -3)"><path d="M19 12c-5-5-4-9 2-8 2-5 8-4 8 2 5-2 8 2 5 7" fill="#a8782e" stroke="#25311e" stroke-width="1.4"/></g>
      <ellipse cx="24" cy="22" rx="11" ry="15" fill="#f2d184" stroke="#25311e" stroke-width="1.8"/>
      <path d="M16 22c3 5 9 8 16 2 0 7-4 12-9 13-5-2-8-8-7-15z" fill="#fff3c9" opacity=".78"/>
      <path d="M15 23c-5 4-5 10 2 13 3-4 4-9 2-14z" fill="#c8953f" stroke="#25311e" stroke-width="1.2" opacity=".9"/>
      <path d="M33 23c5 4 5 10-2 13-3-4-4-9-2-14z" fill="#c8953f" stroke="#25311e" stroke-width="1.2" opacity=".9"/>
      <ellipse cx="24" cy="30" rx="8" ry="7" fill="#dfb654" stroke="#25311e" stroke-width="1.6"/>
      <path d="M20 29c0-3 2-5 4-4 1-3 4-2 5 1 1 3-1 5-5 5z" fill="#d74431" stroke="#25311e" stroke-width="1.2"/>
      <path d="M21 34l3 6 3-6" fill="#f1a832" stroke="#25311e" stroke-width="1"/>
      <circle cx="20.5" cy="30" r="1.3" fill="#182018"/>
      <circle cx="27.5" cy="30" r="1.3" fill="#182018"/>
      <path d="M20 40l-2 4" stroke="#b36a21" stroke-width="2" stroke-linecap="round"/>
      <path d="M28 41l2 4" stroke="#b36a21" stroke-width="2" stroke-linecap="round"/>
    </g>
      </g>
      <g id="hen_fly_left_2" transform="translate(96 240)">
        
    <g transform="rotate(90 24 24) translate(0 0)">
      <ellipse cx="24" cy="28" rx="12" ry="7" fill="#1b271b" opacity=".18"/>
      <path d="M10 21.333333333333332C3 10 3 36.666666666666664 15 32" fill="#c8953f" stroke="#25311e" stroke-width="1.5" opacity=".96"/>
      <path d="M38 21.333333333333332C45 10 45 36.666666666666664 33 32" fill="#c8953f" stroke="#25311e" stroke-width="1.5" opacity=".96"/>
      <g transform="translate(0 -3)"><path d="M19 12c-5-5-4-9 2-8 2-5 8-4 8 2 5-2 8 2 5 7" fill="#a8782e" stroke="#25311e" stroke-width="1.4"/></g>
      <ellipse cx="24" cy="22" rx="11" ry="15" fill="#f2d184" stroke="#25311e" stroke-width="1.8"/>
      <path d="M16 22c3 5 9 8 16 2 0 7-4 12-9 13-5-2-8-8-7-15z" fill="#fff3c9" opacity=".78"/>
      <path d="M15 23c-5 4-5 10 2 13 3-4 4-9 2-14z" fill="#c8953f" stroke="#25311e" stroke-width="1.2" opacity=".9"/>
      <path d="M33 23c5 4 5 10-2 13-3-4-4-9-2-14z" fill="#c8953f" stroke="#25311e" stroke-width="1.2" opacity=".9"/>
      <ellipse cx="24" cy="31" rx="8" ry="7" fill="#dfb654" stroke="#25311e" stroke-width="1.6"/>
      <path d="M20 29c0-3 2-5 4-4 1-3 4-2 5 1 1 3-1 5-5 5z" fill="#d74431" stroke="#25311e" stroke-width="1.2"/>
      <path d="M21 35l3 6 3-6" fill="#f1a832" stroke="#25311e" stroke-width="1"/>
      <circle cx="20.5" cy="31" r="1.3" fill="#182018"/>
      <circle cx="27.5" cy="31" r="1.3" fill="#182018"/>
      <path d="M20 40l-6 4" stroke="#b36a21" stroke-width="2" stroke-linecap="round"/>
      <path d="M28 40l6 4" stroke="#b36a21" stroke-width="2" stroke-linecap="round"/>
    </g>
      </g>
      <g id="hen_fly_left_3" transform="translate(144 240)">
        
    <g transform="rotate(90 24 24) translate(0 1)">
      <ellipse cx="24" cy="28" rx="12" ry="7" fill="#1b271b" opacity=".18"/>
      <path d="M10 22.666666666666668C3 14 3 35.333333333333336 15 32" fill="#c8953f" stroke="#25311e" stroke-width="1.5" opacity=".96"/>
      <path d="M38 22.666666666666668C45 14 45 35.333333333333336 33 32" fill="#c8953f" stroke="#25311e" stroke-width="1.5" opacity=".96"/>
      <g transform="translate(0 -3)"><path d="M19 12c-5-5-4-9 2-8 2-5 8-4 8 2 5-2 8 2 5 7" fill="#a8782e" stroke="#25311e" stroke-width="1.4"/></g>
      <ellipse cx="24" cy="22" rx="11" ry="15" fill="#f2d184" stroke="#25311e" stroke-width="1.8"/>
      <path d="M16 22c3 5 9 8 16 2 0 7-4 12-9 13-5-2-8-8-7-15z" fill="#fff3c9" opacity=".78"/>
      <path d="M15 23c-5 4-5 10 2 13 3-4 4-9 2-14z" fill="#c8953f" stroke="#25311e" stroke-width="1.2" opacity=".9"/>
      <path d="M33 23c5 4 5 10-2 13-3-4-4-9-2-14z" fill="#c8953f" stroke="#25311e" stroke-width="1.2" opacity=".9"/>
      <ellipse cx="24" cy="32" rx="8" ry="7" fill="#dfb654" stroke="#25311e" stroke-width="1.6"/>
      <path d="M20 29c0-3 2-5 4-4 1-3 4-2 5 1 1 3-1 5-5 5z" fill="#d74431" stroke="#25311e" stroke-width="1.2"/>
      <path d="M21 36l3 6 3-6" fill="#f1a832" stroke="#25311e" stroke-width="1"/>
      <circle cx="20.5" cy="32" r="1.3" fill="#182018"/>
      <circle cx="27.5" cy="32" r="1.3" fill="#182018"/>
      <path d="M20 41l-2 4" stroke="#b36a21" stroke-width="2" stroke-linecap="round"/>
      <path d="M28 40l2 4" stroke="#b36a21" stroke-width="2" stroke-linecap="round"/>
    </g>
      </g>
      <g id="hen_fly_right_0" transform="translate(0 288)">
        
    <g transform="rotate(-90 24 24) translate(0 0)">
      <ellipse cx="24" cy="28" rx="12" ry="7" fill="#1b271b" opacity=".18"/>
      <path d="M10 21.333333333333332C3 10 3 36.666666666666664 15 32" fill="#c8953f" stroke="#25311e" stroke-width="1.5" opacity=".96"/>
      <path d="M38 21.333333333333332C45 10 45 36.666666666666664 33 32" fill="#c8953f" stroke="#25311e" stroke-width="1.5" opacity=".96"/>
      <g transform="translate(0 -3)"><path d="M19 12c-5-5-4-9 2-8 2-5 8-4 8 2 5-2 8 2 5 7" fill="#a8782e" stroke="#25311e" stroke-width="1.4"/></g>
      <ellipse cx="24" cy="22" rx="11" ry="15" fill="#f2d184" stroke="#25311e" stroke-width="1.8"/>
      <path d="M16 22c3 5 9 8 16 2 0 7-4 12-9 13-5-2-8-8-7-15z" fill="#fff3c9" opacity=".78"/>
      <path d="M15 23c-5 4-5 10 2 13 3-4 4-9 2-14z" fill="#c8953f" stroke="#25311e" stroke-width="1.2" opacity=".9"/>
      <path d="M33 23c5 4 5 10-2 13-3-4-4-9-2-14z" fill="#c8953f" stroke="#25311e" stroke-width="1.2" opacity=".9"/>
      <ellipse cx="24" cy="31" rx="8" ry="7" fill="#dfb654" stroke="#25311e" stroke-width="1.6"/>
      <path d="M20 29c0-3 2-5 4-4 1-3 4-2 5 1 1 3-1 5-5 5z" fill="#d74431" stroke="#25311e" stroke-width="1.2"/>
      <path d="M21 35l3 6 3-6" fill="#f1a832" stroke="#25311e" stroke-width="1"/>
      <circle cx="20.5" cy="31" r="1.3" fill="#182018"/>
      <circle cx="27.5" cy="31" r="1.3" fill="#182018"/>
      <path d="M20 40l-6 4" stroke="#b36a21" stroke-width="2" stroke-linecap="round"/>
      <path d="M28 40l6 4" stroke="#b36a21" stroke-width="2" stroke-linecap="round"/>
    </g>
      </g>
      <g id="hen_fly_right_1" transform="translate(48 288)">
        
    <g transform="rotate(-90 24 24) translate(0 -1)">
      <ellipse cx="24" cy="28" rx="12" ry="7" fill="#1b271b" opacity=".18"/>
      <path d="M10 19.666666666666668C3 5 3 38.333333333333336 15 32" fill="#c8953f" stroke="#25311e" stroke-width="1.5" opacity=".96"/>
      <path d="M38 19.666666666666668C45 5 45 38.333333333333336 33 32" fill="#c8953f" stroke="#25311e" stroke-width="1.5" opacity=".96"/>
      <g transform="translate(0 -3)"><path d="M19 12c-5-5-4-9 2-8 2-5 8-4 8 2 5-2 8 2 5 7" fill="#a8782e" stroke="#25311e" stroke-width="1.4"/></g>
      <ellipse cx="24" cy="22" rx="11" ry="15" fill="#f2d184" stroke="#25311e" stroke-width="1.8"/>
      <path d="M16 22c3 5 9 8 16 2 0 7-4 12-9 13-5-2-8-8-7-15z" fill="#fff3c9" opacity=".78"/>
      <path d="M15 23c-5 4-5 10 2 13 3-4 4-9 2-14z" fill="#c8953f" stroke="#25311e" stroke-width="1.2" opacity=".9"/>
      <path d="M33 23c5 4 5 10-2 13-3-4-4-9-2-14z" fill="#c8953f" stroke="#25311e" stroke-width="1.2" opacity=".9"/>
      <ellipse cx="24" cy="30" rx="8" ry="7" fill="#dfb654" stroke="#25311e" stroke-width="1.6"/>
      <path d="M20 29c0-3 2-5 4-4 1-3 4-2 5 1 1 3-1 5-5 5z" fill="#d74431" stroke="#25311e" stroke-width="1.2"/>
      <path d="M21 34l3 6 3-6" fill="#f1a832" stroke="#25311e" stroke-width="1"/>
      <circle cx="20.5" cy="30" r="1.3" fill="#182018"/>
      <circle cx="27.5" cy="30" r="1.3" fill="#182018"/>
      <path d="M20 40l-2 4" stroke="#b36a21" stroke-width="2" stroke-linecap="round"/>
      <path d="M28 41l2 4" stroke="#b36a21" stroke-width="2" stroke-linecap="round"/>
    </g>
      </g>
      <g id="hen_fly_right_2" transform="translate(96 288)">
        
    <g transform="rotate(-90 24 24) translate(0 0)">
      <ellipse cx="24" cy="28" rx="12" ry="7" fill="#1b271b" opacity=".18"/>
      <path d="M10 21.333333333333332C3 10 3 36.666666666666664 15 32" fill="#c8953f" stroke="#25311e" stroke-width="1.5" opacity=".96"/>
      <path d="M38 21.333333333333332C45 10 45 36.666666666666664 33 32" fill="#c8953f" stroke="#25311e" stroke-width="1.5" opacity=".96"/>
      <g transform="translate(0 -3)"><path d="M19 12c-5-5-4-9 2-8 2-5 8-4 8 2 5-2 8 2 5 7" fill="#a8782e" stroke="#25311e" stroke-width="1.4"/></g>
      <ellipse cx="24" cy="22" rx="11" ry="15" fill="#f2d184" stroke="#25311e" stroke-width="1.8"/>
      <path d="M16 22c3 5 9 8 16 2 0 7-4 12-9 13-5-2-8-8-7-15z" fill="#fff3c9" opacity=".78"/>
      <path d="M15 23c-5 4-5 10 2 13 3-4 4-9 2-14z" fill="#c8953f" stroke="#25311e" stroke-width="1.2" opacity=".9"/>
      <path d="M33 23c5 4 5 10-2 13-3-4-4-9-2-14z" fill="#c8953f" stroke="#25311e" stroke-width="1.2" opacity=".9"/>
      <ellipse cx="24" cy="31" rx="8" ry="7" fill="#dfb654" stroke="#25311e" stroke-width="1.6"/>
      <path d="M20 29c0-3 2-5 4-4 1-3 4-2 5 1 1 3-1 5-5 5z" fill="#d74431" stroke="#25311e" stroke-width="1.2"/>
      <path d="M21 35l3 6 3-6" fill="#f1a832" stroke="#25311e" stroke-width="1"/>
      <circle cx="20.5" cy="31" r="1.3" fill="#182018"/>
      <circle cx="27.5" cy="31" r="1.3" fill="#182018"/>
      <path d="M20 40l-6 4" stroke="#b36a21" stroke-width="2" stroke-linecap="round"/>
      <path d="M28 40l6 4" stroke="#b36a21" stroke-width="2" stroke-linecap="round"/>
    </g>
      </g>
      <g id="hen_fly_right_3" transform="translate(144 288)">
        
    <g transform="rotate(-90 24 24) translate(0 1)">
      <ellipse cx="24" cy="28" rx="12" ry="7" fill="#1b271b" opacity=".18"/>
      <path d="M10 22.666666666666668C3 14 3 35.333333333333336 15 32" fill="#c8953f" stroke="#25311e" stroke-width="1.5" opacity=".96"/>
      <path d="M38 22.666666666666668C45 14 45 35.333333333333336 33 32" fill="#c8953f" stroke="#25311e" stroke-width="1.5" opacity=".96"/>
      <g transform="translate(0 -3)"><path d="M19 12c-5-5-4-9 2-8 2-5 8-4 8 2 5-2 8 2 5 7" fill="#a8782e" stroke="#25311e" stroke-width="1.4"/></g>
      <ellipse cx="24" cy="22" rx="11" ry="15" fill="#f2d184" stroke="#25311e" stroke-width="1.8"/>
      <path d="M16 22c3 5 9 8 16 2 0 7-4 12-9 13-5-2-8-8-7-15z" fill="#fff3c9" opacity=".78"/>
      <path d="M15 23c-5 4-5 10 2 13 3-4 4-9 2-14z" fill="#c8953f" stroke="#25311e" stroke-width="1.2" opacity=".9"/>
      <path d="M33 23c5 4 5 10-2 13-3-4-4-9-2-14z" fill="#c8953f" stroke="#25311e" stroke-width="1.2" opacity=".9"/>
      <ellipse cx="24" cy="32" rx="8" ry="7" fill="#dfb654" stroke="#25311e" stroke-width="1.6"/>
      <path d="M20 29c0-3 2-5 4-4 1-3 4-2 5 1 1 3-1 5-5 5z" fill="#d74431" stroke="#25311e" stroke-width="1.2"/>
      <path d="M21 36l3 6 3-6" fill="#f1a832" stroke="#25311e" stroke-width="1"/>
      <circle cx="20.5" cy="32" r="1.3" fill="#182018"/>
      <circle cx="27.5" cy="32" r="1.3" fill="#182018"/>
      <path d="M20 41l-2 4" stroke="#b36a21" stroke-width="2" stroke-linecap="round"/>
      <path d="M28 40l2 4" stroke="#b36a21" stroke-width="2" stroke-linecap="round"/>
    </g>
      </g>
      <g id="hen_fly_up_0" transform="translate(0 336)">
        
    <g transform="rotate(180 24 24) translate(0 0)">
      <ellipse cx="24" cy="28" rx="12" ry="7" fill="#1b271b" opacity=".18"/>
      <path d="M10 21.333333333333332C3 10 3 36.666666666666664 15 32" fill="#c8953f" stroke="#25311e" stroke-width="1.5" opacity=".96"/>
      <path d="M38 21.333333333333332C45 10 45 36.666666666666664 33 32" fill="#c8953f" stroke="#25311e" stroke-width="1.5" opacity=".96"/>
      <g transform="translate(0 -3)"><path d="M19 12c-5-5-4-9 2-8 2-5 8-4 8 2 5-2 8 2 5 7" fill="#a8782e" stroke="#25311e" stroke-width="1.4"/></g>
      <ellipse cx="24" cy="22" rx="11" ry="15" fill="#f2d184" stroke="#25311e" stroke-width="1.8"/>
      <path d="M16 22c3 5 9 8 16 2 0 7-4 12-9 13-5-2-8-8-7-15z" fill="#fff3c9" opacity=".78"/>
      <path d="M15 23c-5 4-5 10 2 13 3-4 4-9 2-14z" fill="#c8953f" stroke="#25311e" stroke-width="1.2" opacity=".9"/>
      <path d="M33 23c5 4 5 10-2 13-3-4-4-9-2-14z" fill="#c8953f" stroke="#25311e" stroke-width="1.2" opacity=".9"/>
      <ellipse cx="24" cy="31" rx="8" ry="7" fill="#dfb654" stroke="#25311e" stroke-width="1.6"/>
      <path d="M20 29c0-3 2-5 4-4 1-3 4-2 5 1 1 3-1 5-5 5z" fill="#d74431" stroke="#25311e" stroke-width="1.2"/>
      <path d="M21 35l3 6 3-6" fill="#f1a832" stroke="#25311e" stroke-width="1"/>
      <circle cx="20.5" cy="31" r="1.3" fill="#182018"/>
      <circle cx="27.5" cy="31" r="1.3" fill="#182018"/>
      <path d="M20 40l-6 4" stroke="#b36a21" stroke-width="2" stroke-linecap="round"/>
      <path d="M28 40l6 4" stroke="#b36a21" stroke-width="2" stroke-linecap="round"/>
    </g>
      </g>
      <g id="hen_fly_up_1" transform="translate(48 336)">
        
    <g transform="rotate(180 24 24) translate(0 -1)">
      <ellipse cx="24" cy="28" rx="12" ry="7" fill="#1b271b" opacity=".18"/>
      <path d="M10 19.666666666666668C3 5 3 38.333333333333336 15 32" fill="#c8953f" stroke="#25311e" stroke-width="1.5" opacity=".96"/>
      <path d="M38 19.666666666666668C45 5 45 38.333333333333336 33 32" fill="#c8953f" stroke="#25311e" stroke-width="1.5" opacity=".96"/>
      <g transform="translate(0 -3)"><path d="M19 12c-5-5-4-9 2-8 2-5 8-4 8 2 5-2 8 2 5 7" fill="#a8782e" stroke="#25311e" stroke-width="1.4"/></g>
      <ellipse cx="24" cy="22" rx="11" ry="15" fill="#f2d184" stroke="#25311e" stroke-width="1.8"/>
      <path d="M16 22c3 5 9 8 16 2 0 7-4 12-9 13-5-2-8-8-7-15z" fill="#fff3c9" opacity=".78"/>
      <path d="M15 23c-5 4-5 10 2 13 3-4 4-9 2-14z" fill="#c8953f" stroke="#25311e" stroke-width="1.2" opacity=".9"/>
      <path d="M33 23c5 4 5 10-2 13-3-4-4-9-2-14z" fill="#c8953f" stroke="#25311e" stroke-width="1.2" opacity=".9"/>
      <ellipse cx="24" cy="30" rx="8" ry="7" fill="#dfb654" stroke="#25311e" stroke-width="1.6"/>
      <path d="M20 29c0-3 2-5 4-4 1-3 4-2 5 1 1 3-1 5-5 5z" fill="#d74431" stroke="#25311e" stroke-width="1.2"/>
      <path d="M21 34l3 6 3-6" fill="#f1a832" stroke="#25311e" stroke-width="1"/>
      <circle cx="20.5" cy="30" r="1.3" fill="#182018"/>
      <circle cx="27.5" cy="30" r="1.3" fill="#182018"/>
      <path d="M20 40l-2 4" stroke="#b36a21" stroke-width="2" stroke-linecap="round"/>
      <path d="M28 41l2 4" stroke="#b36a21" stroke-width="2" stroke-linecap="round"/>
    </g>
      </g>
      <g id="hen_fly_up_2" transform="translate(96 336)">
        
    <g transform="rotate(180 24 24) translate(0 0)">
      <ellipse cx="24" cy="28" rx="12" ry="7" fill="#1b271b" opacity=".18"/>
      <path d="M10 21.333333333333332C3 10 3 36.666666666666664 15 32" fill="#c8953f" stroke="#25311e" stroke-width="1.5" opacity=".96"/>
      <path d="M38 21.333333333333332C45 10 45 36.666666666666664 33 32" fill="#c8953f" stroke="#25311e" stroke-width="1.5" opacity=".96"/>
      <g transform="translate(0 -3)"><path d="M19 12c-5-5-4-9 2-8 2-5 8-4 8 2 5-2 8 2 5 7" fill="#a8782e" stroke="#25311e" stroke-width="1.4"/></g>
      <ellipse cx="24" cy="22" rx="11" ry="15" fill="#f2d184" stroke="#25311e" stroke-width="1.8"/>
      <path d="M16 22c3 5 9 8 16 2 0 7-4 12-9 13-5-2-8-8-7-15z" fill="#fff3c9" opacity=".78"/>
      <path d="M15 23c-5 4-5 10 2 13 3-4 4-9 2-14z" fill="#c8953f" stroke="#25311e" stroke-width="1.2" opacity=".9"/>
      <path d="M33 23c5 4 5 10-2 13-3-4-4-9-2-14z" fill="#c8953f" stroke="#25311e" stroke-width="1.2" opacity=".9"/>
      <ellipse cx="24" cy="31" rx="8" ry="7" fill="#dfb654" stroke="#25311e" stroke-width="1.6"/>
      <path d="M20 29c0-3 2-5 4-4 1-3 4-2 5 1 1 3-1 5-5 5z" fill="#d74431" stroke="#25311e" stroke-width="1.2"/>
      <path d="M21 35l3 6 3-6" fill="#f1a832" stroke="#25311e" stroke-width="1"/>
      <circle cx="20.5" cy="31" r="1.3" fill="#182018"/>
      <circle cx="27.5" cy="31" r="1.3" fill="#182018"/>
      <path d="M20 40l-6 4" stroke="#b36a21" stroke-width="2" stroke-linecap="round"/>
      <path d="M28 40l6 4" stroke="#b36a21" stroke-width="2" stroke-linecap="round"/>
    </g>
      </g>
      <g id="hen_fly_up_3" transform="translate(144 336)">
        
    <g transform="rotate(180 24 24) translate(0 1)">
      <ellipse cx="24" cy="28" rx="12" ry="7" fill="#1b271b" opacity=".18"/>
      <path d="M10 22.666666666666668C3 14 3 35.333333333333336 15 32" fill="#c8953f" stroke="#25311e" stroke-width="1.5" opacity=".96"/>
      <path d="M38 22.666666666666668C45 14 45 35.333333333333336 33 32" fill="#c8953f" stroke="#25311e" stroke-width="1.5" opacity=".96"/>
      <g transform="translate(0 -3)"><path d="M19 12c-5-5-4-9 2-8 2-5 8-4 8 2 5-2 8 2 5 7" fill="#a8782e" stroke="#25311e" stroke-width="1.4"/></g>
      <ellipse cx="24" cy="22" rx="11" ry="15" fill="#f2d184" stroke="#25311e" stroke-width="1.8"/>
      <path d="M16 22c3 5 9 8 16 2 0 7-4 12-9 13-5-2-8-8-7-15z" fill="#fff3c9" opacity=".78"/>
      <path d="M15 23c-5 4-5 10 2 13 3-4 4-9 2-14z" fill="#c8953f" stroke="#25311e" stroke-width="1.2" opacity=".9"/>
      <path d="M33 23c5 4 5 10-2 13-3-4-4-9-2-14z" fill="#c8953f" stroke="#25311e" stroke-width="1.2" opacity=".9"/>
      <ellipse cx="24" cy="32" rx="8" ry="7" fill="#dfb654" stroke="#25311e" stroke-width="1.6"/>
      <path d="M20 29c0-3 2-5 4-4 1-3 4-2 5 1 1 3-1 5-5 5z" fill="#d74431" stroke="#25311e" stroke-width="1.2"/>
      <path d="M21 36l3 6 3-6" fill="#f1a832" stroke="#25311e" stroke-width="1"/>
      <circle cx="20.5" cy="32" r="1.3" fill="#182018"/>
      <circle cx="27.5" cy="32" r="1.3" fill="#182018"/>
      <path d="M20 41l-2 4" stroke="#b36a21" stroke-width="2" stroke-linecap="round"/>
      <path d="M28 40l2 4" stroke="#b36a21" stroke-width="2" stroke-linecap="round"/>
    </g>
      </g></g>
    </svg>
