<svg xmlns="http://www.w3.org/2000/svg" width="192" height="48" viewBox="0 0 192 48">
      <defs>
        <filter id="soft-player" x="-20%" y="-20%" width="140%" height="140%">
          <feDropShadow dx="0" dy="1" stdDeviation="0.45" flood-color="#102018" flood-opacity=".22"/>
        </filter>
      </defs>
      <g filter="url(#soft-player)">
      <g id="lan_anh_run_up_0" transform="translate(0 0)">
        
      <g transform="translate(0 0)">
        <ellipse cx="24" cy="42" rx="11" ry="4" fill="#172016" opacity=".18"/>
        <path d="M17 21c-4 5-5 12-3 17 5 4 15 4 20 0 2-5 1-12-3-17z" fill="#e55135" stroke="#202122" stroke-width="1.5"/>
        <path d="M18 33c4 2 8 3 12 0v7c-4 2-8 2-12 0z" fill="#a93428" opacity=".62"/>
        <path d="M18 29.55c-4 3-6 6-6 10" stroke="#f4b37e" stroke-width="4" stroke-linecap="round"/>
        <path d="M30 30.45c4 3 6 6 6 10" stroke="#f4b37e" stroke-width="4" stroke-linecap="round"/>
        <path d="M19 38l-4.1 7" stroke="#1f557f" stroke-width="5" stroke-linecap="round"/>
        <path d="M29 38l4.1 7" stroke="#1f557f" stroke-width="5" stroke-linecap="round"/>
        <path d="M15 45l-4 1.5" stroke="#26323b" stroke-width="3.5" stroke-linecap="round"/>
        <path d="M33 45l4 1.5" stroke="#26323b" stroke-width="3.5" stroke-linecap="round"/>
        <path d="M18 36c4 2 8 2 12 0v6c-4 2-8 2-12 0z" fill="#2b77a8" stroke="#202122" stroke-width="1"/>
        <circle cx="24" cy="18" r="8.7" fill="#151819" stroke="#202122" stroke-width="1.6"/>
        <path d="M15 19c0-7 5-12 12-11 6 1 9 5 8 12-3-4-7-6-11-6-4 0-7 2-9 5z" fill="#34383a" opacity=".28"/>
        <path d="M17 22c4 4 10 5 15 0 0 5-3 9-8 10-5-1-7-5-7-10z" fill="#151819" stroke="#202122" stroke-width="1.1"/>
      </g>
      </g>
      <g id="lan_anh_run_up_1" transform="translate(48 0)">
        
      <g transform="translate(0 -2)">
        <ellipse cx="24" cy="42" rx="11" ry="4" fill="#172016" opacity=".18"/>
        <path d="M17 21c-4 5-5 12-3 17 5 4 15 4 20 0 2-5 1-12-3-17z" fill="#e55135" stroke="#202122" stroke-width="1.5"/>
        <path d="M18 33c4 2 8 3 12 0v7c-4 2-8 2-12 0z" fill="#a93428" opacity=".62"/>
        <path d="M18 30.45c-4 3-6 6-6 10" stroke="#f4b37e" stroke-width="4" stroke-linecap="round"/>
        <path d="M30 29.55c4 3 6 6 6 10" stroke="#f4b37e" stroke-width="4" stroke-linecap="round"/>
        <path d="M19 38l-1.9 7" stroke="#1f557f" stroke-width="5" stroke-linecap="round"/>
        <path d="M29 38l1.9 7" stroke="#1f557f" stroke-width="5" stroke-linecap="round"/>
        <path d="M15 45l-4 1.5" stroke="#26323b" stroke-width="3.5" stroke-linecap="round"/>
        <path d="M33 45l4 1.5" stroke="#26323b" stroke-width="3.5" stroke-linecap="round"/>
        <path d="M18 36c4 2 8 2 12 0v6c-4 2-8 2-12 0z" fill="#2b77a8" stroke="#202122" stroke-width="1"/>
        <circle cx="24" cy="18" r="8.7" fill="#151819" stroke="#202122" stroke-width="1.6"/>
        <path d="M15 19c0-7 5-12 12-11 6 1 9 5 8 12-3-4-7-6-11-6-4 0-7 2-9 5z" fill="#34383a" opacity=".28"/>
        <path d="M17 22c4 4 10 5 15 0 0 5-3 9-8 10-5-1-7-5-7-10z" fill="#151819" stroke="#202122" stroke-width="1.1"/>
      </g>
      </g>
      <g id="lan_anh_run_up_2" transform="translate(96 0)">
        
      <g transform="translate(0 0)">
        <ellipse cx="24" cy="42" rx="11" ry="4" fill="#172016" opacity=".18"/>
        <path d="M17 21c-4 5-5 12-3 17 5 4 15 4 20 0 2-5 1-12-3-17z" fill="#e55135" stroke="#202122" stroke-width="1.5"/>
        <path d="M18 33c4 2 8 3 12 0v7c-4 2-8 2-12 0z" fill="#a93428" opacity=".62"/>
        <path d="M18 29.55c-4 3-6 6-6 10" stroke="#f4b37e" stroke-width="4" stroke-linecap="round"/>
        <path d="M30 30.45c4 3 6 6 6 10" stroke="#f4b37e" stroke-width="4" stroke-linecap="round"/>
        <path d="M19 38l-4.1 7" stroke="#1f557f" stroke-width="5" stroke-linecap="round"/>
        <path d="M29 38l4.1 7" stroke="#1f557f" stroke-width="5" stroke-linecap="round"/>
        <path d="M15 45l-4 1.5" stroke="#26323b" stroke-width="3.5" stroke-linecap="round"/>
        <path d="M33 45l4 1.5" stroke="#26323b" stroke-width="3.5" stroke-linecap="round"/>
        <path d="M18 36c4 2 8 2 12 0v6c-4 2-8 2-12 0z" fill="#2b77a8" stroke="#202122" stroke-width="1"/>
        <circle cx="24" cy="18" r="8.7" fill="#151819" stroke="#202122" stroke-width="1.6"/>
        <path d="M15 19c0-7 5-12 12-11 6 1 9 5 8 12-3-4-7-6-11-6-4 0-7 2-9 5z" fill="#34383a" opacity=".28"/>
        <path d="M17 22c4 4 10 5 15 0 0 5-3 9-8 10-5-1-7-5-7-10z" fill="#151819" stroke="#202122" stroke-width="1.1"/>
      </g>
      </g>
      <g id="lan_anh_run_up_3" transform="translate(144 0)">
        
      <g transform="translate(0 -1)">
        <ellipse cx="24" cy="42" rx="11" ry="4" fill="#172016" opacity=".18"/>
        <path d="M17 21c-4 5-5 12-3 17 5 4 15 4 20 0 2-5 1-12-3-17z" fill="#e55135" stroke="#202122" stroke-width="1.5"/>
        <path d="M18 33c4 2 8 3 12 0v7c-4 2-8 2-12 0z" fill="#a93428" opacity=".62"/>
        <path d="M18 30.45c-4 3-6 6-6 10" stroke="#f4b37e" stroke-width="4" stroke-linecap="round"/>
        <path d="M30 29.55c4 3 6 6 6 10" stroke="#f4b37e" stroke-width="4" stroke-linecap="round"/>
        <path d="M19 38l-1.9 7" stroke="#1f557f" stroke-width="5" stroke-linecap="round"/>
        <path d="M29 38l1.9 7" stroke="#1f557f" stroke-width="5" stroke-linecap="round"/>
        <path d="M15 45l-4 1.5" stroke="#26323b" stroke-width="3.5" stroke-linecap="round"/>
        <path d="M33 45l4 1.5" stroke="#26323b" stroke-width="3.5" stroke-linecap="round"/>
        <path d="M18 36c4 2 8 2 12 0v6c-4 2-8 2-12 0z" fill="#2b77a8" stroke="#202122" stroke-width="1"/>
        <circle cx="24" cy="18" r="8.7" fill="#151819" stroke="#202122" stroke-width="1.6"/>
        <path d="M15 19c0-7 5-12 12-11 6 1 9 5 8 12-3-4-7-6-11-6-4 0-7 2-9 5z" fill="#34383a" opacity=".28"/>
        <path d="M17 22c4 4 10 5 15 0 0 5-3 9-8 10-5-1-7-5-7-10z" fill="#151819" stroke="#202122" stroke-width="1.1"/>
      </g>
      </g></g>
    </svg>
