<svg xmlns="http://www.w3.org/2000/svg" width="192" height="48" viewBox="0 0 192 48">
      <defs>
        <filter id="soft-player" x="-20%" y="-20%" width="140%" height="140%">
          <feDropShadow dx="0" dy="1" stdDeviation="0.45" flood-color="#102018" flood-opacity=".22"/>
        </filter>
      </defs>
      <g filter="url(#soft-player)">
      <g id="lan_anh_walk_left_0" transform="translate(0 0)">
        
      <g transform="translate(48 0) scale(-1 1) translate(0 0)">
        <ellipse cx="24" cy="42" rx="10.5" ry="4" fill="#172016" opacity=".18"/>
        <path d="M20 22c-4 4-6 11-4 16 4 4 13 4 17 0 2-5 1-12-3-16z" fill="#e55135" stroke="#202122" stroke-width="1.5"/>
        <path d="M19 32c4 3 8 3 13 0v7c-4 2-9 2-13 0z" fill="#a93428" opacity=".6"/>
        <path d="M19 31.25c-5 2-8 5-9 9" stroke="#f4b37e" stroke-width="4" stroke-linecap="round"/>
        <path d="M30 30.75c4 3 6 6 7 10" stroke="#f4b37e" stroke-width="4" stroke-linecap="round"/>
        <path d="M20 38l-3.784 7" stroke="#1f557f" stroke-width="5" stroke-linecap="round"/>
        <path d="M29 38l4.784 7" stroke="#1f557f" stroke-width="5" stroke-linecap="round"/>
        <path d="M16 45l-4 1.5" stroke="#26323b" stroke-width="3.5" stroke-linecap="round"/>
        <path d="M33 45l4 1.5" stroke="#26323b" stroke-width="3.5" stroke-linecap="round"/>
        <path d="M19 36c4 2 8 2 12 0v6c-4 2-8 2-12 0z" fill="#2b77a8" stroke="#202122" stroke-width="1"/>
        <circle cx="25" cy="18" r="8.3" fill="#f4b37e" stroke="#202122" stroke-width="1.6"/>
        <path d="M17 17c1-8 8-12 15-8 6 4 6 11 1 17-2-6-5-9-11-9-2 0-3 0-5 0z" fill="#151819" stroke="#202122" stroke-width="1.4"/>
        <path d="M17 17c-3 5-2 10 1 14-5-2-7-5-7-10 0-3 2-5 6-4z" fill="#151819" stroke="#202122" stroke-width="1.1"/>
        <path d="M18 16c4-4 9-5 14-2" stroke="#34383a" stroke-width="1.5" stroke-linecap="round" opacity=".55"/>
        <circle cx="27" cy="19" r="1.15" fill="#101214"/>
        <path d="M25 24c1.4 1.2 3.1 1.2 4.5 0" stroke="#79352b" stroke-width="1.1" stroke-linecap="round"/>
        <circle cx="30.5" cy="22.2" r="1.35" fill="#e86d5c" opacity=".5"/>
      </g>
      </g>
      <g id="lan_anh_walk_left_1" transform="translate(48 0)">
        
      <g transform="translate(48 0) scale(-1 1) translate(0 -1)">
        <ellipse cx="24" cy="42" rx="10.5" ry="4" fill="#172016" opacity=".18"/>
        <path d="M20 22c-4 4-6 11-4 16 4 4 13 4 17 0 2-5 1-12-3-16z" fill="#e55135" stroke="#202122" stroke-width="1.5"/>
        <path d="M19 32c4 3 8 3 13 0v7c-4 2-9 2-13 0z" fill="#a93428" opacity=".6"/>
        <path d="M19 30.75c-5 2-8 5-9 9" stroke="#f4b37e" stroke-width="4" stroke-linecap="round"/>
        <path d="M30 31.25c4 3 6 6 7 10" stroke="#f4b37e" stroke-width="4" stroke-linecap="round"/>
        <path d="M20 38l-2.216 7" stroke="#1f557f" stroke-width="5" stroke-linecap="round"/>
        <path d="M29 38l3.216 7" stroke="#1f557f" stroke-width="5" stroke-linecap="round"/>
        <path d="M16 45l-4 1.5" stroke="#26323b" stroke-width="3.5" stroke-linecap="round"/>
        <path d="M33 45l4 1.5" stroke="#26323b" stroke-width="3.5" stroke-linecap="round"/>
        <path d="M19 36c4 2 8 2 12 0v6c-4 2-8 2-12 0z" fill="#2b77a8" stroke="#202122" stroke-width="1"/>
        <circle cx="25" cy="18" r="8.3" fill="#f4b37e" stroke="#202122" stroke-width="1.6"/>
        <path d="M17 17c1-8 8-12 15-8 6 4 6 11 1 17-2-6-5-9-11-9-2 0-3 0-5 0z" fill="#151819" stroke="#202122" stroke-width="1.4"/>
        <path d="M17 17c-3 5-2 10 1 14-5-2-7-5-7-10 0-3 2-5 6-4z" fill="#151819" stroke="#202122" stroke-width="1.1"/>
        <path d="M18 16c4-4 9-5 14-2" stroke="#34383a" stroke-width="1.5" stroke-linecap="round" opacity=".55"/>
        <circle cx="27" cy="19" r="1.15" fill="#101214"/>
        <path d="M25 24c1.4 1.2 3.1 1.2 4.5 0" stroke="#79352b" stroke-width="1.1" stroke-linecap="round"/>
        <circle cx="30.5" cy="22.2" r="1.35" fill="#e86d5c" opacity=".5"/>
      </g>
      </g>
      <g id="lan_anh_walk_left_2" transform="translate(96 0)">
        
      <g transform="translate(48 0) scale(-1 1) translate(0 0)">
        <ellipse cx="24" cy="42" rx="10.5" ry="4" fill="#172016" opacity=".18"/>
        <path d="M20 22c-4 4-6 11-4 16 4 4 13 4 17 0 2-5 1-12-3-16z" fill="#e55135" stroke="#202122" stroke-width="1.5"/>
        <path d="M19 32c4 3 8 3 13 0v7c-4 2-9 2-13 0z" fill="#a93428" opacity=".6"/>
        <path d="M19 31.25c-5 2-8 5-9 9" stroke="#f4b37e" stroke-width="4" stroke-linecap="round"/>
        <path d="M30 30.75c4 3 6 6 7 10" stroke="#f4b37e" stroke-width="4" stroke-linecap="round"/>
        <path d="M20 38l-3.784 7" stroke="#1f557f" stroke-width="5" stroke-linecap="round"/>
        <path d="M29 38l4.784 7" stroke="#1f557f" stroke-width="5" stroke-linecap="round"/>
        <path d="M16 45l-4 1.5" stroke="#26323b" stroke-width="3.5" stroke-linecap="round"/>
        <path d="M33 45l4 1.5" stroke="#26323b" stroke-width="3.5" stroke-linecap="round"/>
        <path d="M19 36c4 2 8 2 12 0v6c-4 2-8 2-12 0z" fill="#2b77a8" stroke="#202122" stroke-width="1"/>
        <circle cx="25" cy="18" r="8.3" fill="#f4b37e" stroke="#202122" stroke-width="1.6"/>
        <path d="M17 17c1-8 8-12 15-8 6 4 6 11 1 17-2-6-5-9-11-9-2 0-3 0-5 0z" fill="#151819" stroke="#202122" stroke-width="1.4"/>
        <path d="M17 17c-3 5-2 10 1 14-5-2-7-5-7-10 0-3 2-5 6-4z" fill="#151819" stroke="#202122" stroke-width="1.1"/>
        <path d="M18 16c4-4 9-5 14-2" stroke="#34383a" stroke-width="1.5" stroke-linecap="round" opacity=".55"/>
        <circle cx="27" cy="19" r="1.15" fill="#101214"/>
        <path d="M25 24c1.4 1.2 3.1 1.2 4.5 0" stroke="#79352b" stroke-width="1.1" stroke-linecap="round"/>
        <circle cx="30.5" cy="22.2" r="1.35" fill="#e86d5c" opacity=".5"/>
      </g>
      </g>
      <g id="lan_anh_walk_left_3" transform="translate(144 0)">
        
      <g transform="translate(48 0) scale(-1 1) translate(0 0)">
        <ellipse cx="24" cy="42" rx="10.5" ry="4" fill="#172016" opacity=".18"/>
        <path d="M20 22c-4 4-6 11-4 16 4 4 13 4 17 0 2-5 1-12-3-16z" fill="#e55135" stroke="#202122" stroke-width="1.5"/>
        <path d="M19 32c4 3 8 3 13 0v7c-4 2-9 2-13 0z" fill="#a93428" opacity=".6"/>
        <path d="M19 30.75c-5 2-8 5-9 9" stroke="#f4b37e" stroke-width="4" stroke-linecap="round"/>
        <path d="M30 31.25c4 3 6 6 7 10" stroke="#f4b37e" stroke-width="4" stroke-linecap="round"/>
        <path d="M20 38l-2.216 7" stroke="#1f557f" stroke-width="5" stroke-linecap="round"/>
        <path d="M29 38l3.216 7" stroke="#1f557f" stroke-width="5" stroke-linecap="round"/>
        <path d="M16 45l-4 1.5" stroke="#26323b" stroke-width="3.5" stroke-linecap="round"/>
        <path d="M33 45l4 1.5" stroke="#26323b" stroke-width="3.5" stroke-linecap="round"/>
        <path d="M19 36c4 2 8 2 12 0v6c-4 2-8 2-12 0z" fill="#2b77a8" stroke="#202122" stroke-width="1"/>
        <circle cx="25" cy="18" r="8.3" fill="#f4b37e" stroke="#202122" stroke-width="1.6"/>
        <path d="M17 17c1-8 8-12 15-8 6 4 6 11 1 17-2-6-5-9-11-9-2 0-3 0-5 0z" fill="#151819" stroke="#202122" stroke-width="1.4"/>
        <path d="M17 17c-3 5-2 10 1 14-5-2-7-5-7-10 0-3 2-5 6-4z" fill="#151819" stroke="#202122" stroke-width="1.1"/>
        <path d="M18 16c4-4 9-5 14-2" stroke="#34383a" stroke-width="1.5" stroke-linecap="round" opacity=".55"/>
        <circle cx="27" cy="19" r="1.15" fill="#101214"/>
        <path d="M25 24c1.4 1.2 3.1 1.2 4.5 0" stroke="#79352b" stroke-width="1.1" stroke-linecap="round"/>
        <circle cx="30.5" cy="22.2" r="1.35" fill="#e86d5c" opacity=".5"/>
      </g>
      </g></g>
    </svg>
