<svg xmlns="http://www.w3.org/2000/svg" width="192" height="48" viewBox="0 0 192 48">
      <defs>
        <filter id="soft-player" x="-20%" y="-20%" width="140%" height="140%">
          <feDropShadow dx="0" dy="1" stdDeviation="0.45" flood-color="#102018" flood-opacity=".22"/>
        </filter>
      </defs>
      <g filter="url(#soft-player)">
      <g id="lan_anh_walk_down_0" transform="translate(0 0)">
        
    <g transform="translate(0 0)">
      <ellipse cx="24" cy="42" rx="11" ry="4" fill="#172016" opacity=".18"/>
      <path d="M17 21c-4 5-5 12-3 17 5 4 15 4 20 0 2-5 1-12-3-17z" fill="#e55135" stroke="#202122" stroke-width="1.5"/>
      <path d="M18 32c4 3 8 3 12 0v7c-4 2-8 2-12 0z" fill="#a93428" opacity=".62"/>
      <path d="M18 30.75c-4 3-6 6-6 10" stroke="#f4b37e" stroke-width="4" stroke-linecap="round"/>
      <path d="M30 31.25c4 3 6 6 6 10" stroke="#f4b37e" stroke-width="4" stroke-linecap="round"/>
      <path d="M19 38l-3.616 7" stroke="#1f557f" stroke-width="5" stroke-linecap="round"/>
      <path d="M29 38l3.616 7" stroke="#1f557f" stroke-width="5" stroke-linecap="round"/>
      <path d="M15 45l-4 1.5" stroke="#26323b" stroke-width="3.5" stroke-linecap="round"/>
      <path d="M33 45l4 1.5" stroke="#26323b" stroke-width="3.5" stroke-linecap="round"/>
      <path d="M18 36c4 2 8 2 12 0v6c-4 2-8 2-12 0z" fill="#2b77a8" stroke="#202122" stroke-width="1"/>
      <circle cx="24" cy="18" r="8.6" fill="#f4b37e" stroke="#202122" stroke-width="1.6"/>
      <path d="M15 17c0-8 7-12 16-8 7 4 7 12 2 17-2-6-5-9-11-9-3 0-5 0-7 0z" fill="#151819" stroke="#202122" stroke-width="1.4"/>
      <path d="M16 17c5-5 10-6 16-2" stroke="#34383a" stroke-width="1.5" stroke-linecap="round" opacity=".55"/>
      <path d="M16 17c-3 6-2 11 2 14-5-2-8-6-8-11 0-3 2-5 6-3z" fill="#151819" stroke="#202122" stroke-width="1.1"/>
      <path d="M32 17c3 6 2 11-2 14 5-2 8-6 8-11 0-3-2-5-6-3z" fill="#151819" stroke="#202122" stroke-width="1.1"/>
      
    <circle cx="21" cy="19" r="1.15" fill="#101214"/>
    <circle cx="27" cy="19" r="1.15" fill="#101214"/>
    <path d="M21.3 24c1.8 1.6 4.2 1.6 5.9 0" stroke="#79352b" stroke-width="1.15" stroke-linecap="round"/>
    <circle cx="18.7" cy="22.2" r="1.45" fill="#e86d5c" opacity=".52"/>
    <circle cx="29.3" cy="22.2" r="1.45" fill="#e86d5c" opacity=".52"/>
    </g>
      </g>
      <g id="lan_anh_walk_down_1" transform="translate(48 0)">
        
    <g transform="translate(0 -1)">
      <ellipse cx="24" cy="42" rx="11" ry="4" fill="#172016" opacity=".18"/>
      <path d="M17 21c-4 5-5 12-3 17 5 4 15 4 20 0 2-5 1-12-3-17z" fill="#e55135" stroke="#202122" stroke-width="1.5"/>
      <path d="M18 32c4 3 8 3 12 0v7c-4 2-8 2-12 0z" fill="#a93428" opacity=".62"/>
      <path d="M18 31.25c-4 3-6 6-6 10" stroke="#f4b37e" stroke-width="4" stroke-linecap="round"/>
      <path d="M30 30.75c4 3 6 6 6 10" stroke="#f4b37e" stroke-width="4" stroke-linecap="round"/>
      <path d="M19 38l-2.384 7" stroke="#1f557f" stroke-width="5" stroke-linecap="round"/>
      <path d="M29 38l2.384 7" stroke="#1f557f" stroke-width="5" stroke-linecap="round"/>
      <path d="M15 45l-4 1.5" stroke="#26323b" stroke-width="3.5" stroke-linecap="round"/>
      <path d="M33 45l4 1.5" stroke="#26323b" stroke-width="3.5" stroke-linecap="round"/>
      <path d="M18 36c4 2 8 2 12 0v6c-4 2-8 2-12 0z" fill="#2b77a8" stroke="#202122" stroke-width="1"/>
      <circle cx="24" cy="18" r="8.6" fill="#f4b37e" stroke="#202122" stroke-width="1.6"/>
      <path d="M15 17c0-8 7-12 16-8 7 4 7 12 2 17-2-6-5-9-11-9-3 0-5 0-7 0z" fill="#151819" stroke="#202122" stroke-width="1.4"/>
      <path d="M16 17c5-5 10-6 16-2" stroke="#34383a" stroke-width="1.5" stroke-linecap="round" opacity=".55"/>
      <path d="M16 17c-3 6-2 11 2 14-5-2-8-6-8-11 0-3 2-5 6-3z" fill="#151819" stroke="#202122" stroke-width="1.1"/>
      <path d="M32 17c3 6 2 11-2 14 5-2 8-6 8-11 0-3-2-5-6-3z" fill="#151819" stroke="#202122" stroke-width="1.1"/>
      
    <circle cx="21" cy="19" r="1.15" fill="#101214"/>
    <circle cx="27" cy="19" r="1.15" fill="#101214"/>
    <path d="M21.3 24c1.8 1.6 4.2 1.6 5.9 0" stroke="#79352b" stroke-width="1.15" stroke-linecap="round"/>
    <circle cx="18.7" cy="22.2" r="1.45" fill="#e86d5c" opacity=".52"/>
    <circle cx="29.3" cy="22.2" r="1.45" fill="#e86d5c" opacity=".52"/>
    </g>
      </g>
      <g id="lan_anh_walk_down_2" transform="translate(96 0)">
        
    <g transform="translate(0 0)">
      <ellipse cx="24" cy="42" rx="11" ry="4" fill="#172016" opacity=".18"/>
      <path d="M17 21c-4 5-5 12-3 17 5 4 15 4 20 0 2-5 1-12-3-17z" fill="#e55135" stroke="#202122" stroke-width="1.5"/>
      <path d="M18 32c4 3 8 3 12 0v7c-4 2-8 2-12 0z" fill="#a93428" opacity=".62"/>
      <path d="M18 30.75c-4 3-6 6-6 10" stroke="#f4b37e" stroke-width="4" stroke-linecap="round"/>
      <path d="M30 31.25c4 3 6 6 6 10" stroke="#f4b37e" stroke-width="4" stroke-linecap="round"/>
      <path d="M19 38l-3.616 7" stroke="#1f557f" stroke-width="5" stroke-linecap="round"/>
      <path d="M29 38l3.616 7" stroke="#1f557f" stroke-width="5" stroke-linecap="round"/>
      <path d="M15 45l-4 1.5" stroke="#26323b" stroke-width="3.5" stroke-linecap="round"/>
      <path d="M33 45l4 1.5" stroke="#26323b" stroke-width="3.5" stroke-linecap="round"/>
      <path d="M18 36c4 2 8 2 12 0v6c-4 2-8 2-12 0z" fill="#2b77a8" stroke="#202122" stroke-width="1"/>
      <circle cx="24" cy="18" r="8.6" fill="#f4b37e" stroke="#202122" stroke-width="1.6"/>
      <path d="M15 17c0-8 7-12 16-8 7 4 7 12 2 17-2-6-5-9-11-9-3 0-5 0-7 0z" fill="#151819" stroke="#202122" stroke-width="1.4"/>
      <path d="M16 17c5-5 10-6 16-2" stroke="#34383a" stroke-width="1.5" stroke-linecap="round" opacity=".55"/>
      <path d="M16 17c-3 6-2 11 2 14-5-2-8-6-8-11 0-3 2-5 6-3z" fill="#151819" stroke="#202122" stroke-width="1.1"/>
      <path d="M32 17c3 6 2 11-2 14 5-2 8-6 8-11 0-3-2-5-6-3z" fill="#151819" stroke="#202122" stroke-width="1.1"/>
      
    <circle cx="21" cy="19" r="1.15" fill="#101214"/>
    <circle cx="27" cy="19" r="1.15" fill="#101214"/>
    <path d="M21.3 24c1.8 1.6 4.2 1.6 5.9 0" stroke="#79352b" stroke-width="1.15" stroke-linecap="round"/>
    <circle cx="18.7" cy="22.2" r="1.45" fill="#e86d5c" opacity=".52"/>
    <circle cx="29.3" cy="22.2" r="1.45" fill="#e86d5c" opacity=".52"/>
    </g>
      </g>
      <g id="lan_anh_walk_down_3" transform="translate(144 0)">
        
    <g transform="translate(0 0)">
      <ellipse cx="24" cy="42" rx="11" ry="4" fill="#172016" opacity=".18"/>
      <path d="M17 21c-4 5-5 12-3 17 5 4 15 4 20 0 2-5 1-12-3-17z" fill="#e55135" stroke="#202122" stroke-width="1.5"/>
      <path d="M18 32c4 3 8 3 12 0v7c-4 2-8 2-12 0z" fill="#a93428" opacity=".62"/>
      <path d="M18 31.25c-4 3-6 6-6 10" stroke="#f4b37e" stroke-width="4" stroke-linecap="round"/>
      <path d="M30 30.75c4 3 6 6 6 10" stroke="#f4b37e" stroke-width="4" stroke-linecap="round"/>
      <path d="M19 38l-2.384 7" stroke="#1f557f" stroke-width="5" stroke-linecap="round"/>
      <path d="M29 38l2.384 7" stroke="#1f557f" stroke-width="5" stroke-linecap="round"/>
      <path d="M15 45l-4 1.5" stroke="#26323b" stroke-width="3.5" stroke-linecap="round"/>
      <path d="M33 45l4 1.5" stroke="#26323b" stroke-width="3.5" stroke-linecap="round"/>
      <path d="M18 36c4 2 8 2 12 0v6c-4 2-8 2-12 0z" fill="#2b77a8" stroke="#202122" stroke-width="1"/>
      <circle cx="24" cy="18" r="8.6" fill="#f4b37e" stroke="#202122" stroke-width="1.6"/>
      <path d="M15 17c0-8 7-12 16-8 7 4 7 12 2 17-2-6-5-9-11-9-3 0-5 0-7 0z" fill="#151819" stroke="#202122" stroke-width="1.4"/>
      <path d="M16 17c5-5 10-6 16-2" stroke="#34383a" stroke-width="1.5" stroke-linecap="round" opacity=".55"/>
      <path d="M16 17c-3 6-2 11 2 14-5-2-8-6-8-11 0-3 2-5 6-3z" fill="#151819" stroke="#202122" stroke-width="1.1"/>
      <path d="M32 17c3 6 2 11-2 14 5-2 8-6 8-11 0-3-2-5-6-3z" fill="#151819" stroke="#202122" stroke-width="1.1"/>
      
    <circle cx="21" cy="19" r="1.15" fill="#101214"/>
    <circle cx="27" cy="19" r="1.15" fill="#101214"/>
    <path d="M21.3 24c1.8 1.6 4.2 1.6 5.9 0" stroke="#79352b" stroke-width="1.15" stroke-linecap="round"/>
    <circle cx="18.7" cy="22.2" r="1.45" fill="#e86d5c" opacity=".52"/>
    <circle cx="29.3" cy="22.2" r="1.45" fill="#e86d5c" opacity=".52"/>
    </g>
      </g></g>
    </svg>
