<svg xmlns="http://www.w3.org/2000/svg" width="112" height="82" viewBox="0 0 112 82">
    <ellipse cx="56" cy="66" rx="44" ry="10" fill="#1d2617" opacity=".18"/>
    <ellipse cx="56" cy="48" rx="42" ry="23" fill="#d9a93c" stroke="#68451d" stroke-width="3"/>
    <g stroke-linecap="round" stroke-width="3">
      <path d="M18 27l-10 -6" stroke="#fff0a6"/><path d="M35 38l-5 -4" stroke="#efc858"/><path d="M52 49l0 -2" stroke="#efc858"/><path d="M69 60l5 0" stroke="#a86f20"/><path d="M86 37l10 2" stroke="#fff0a6"/><path d="M27 48l-10 4" stroke="#efc858"/><path d="M44 59l-5 6" stroke="#a86f20"/><path d="M61 36l0 -6" stroke="#efc858"/><path d="M78 47l5 -4" stroke="#fff0a6"/><path d="M19 58l10 -2" stroke="#a86f20"/><path d="M36 35l-10 0" stroke="#efc858"/><path d="M53 46l-5 2" stroke="#efc858"/><path d="M70 57l0 4" stroke="#fff0a6"/><path d="M87 34l5 6" stroke="#efc858"/><path d="M28 45l10 -6" stroke="#efc858"/><path d="M45 56l-10 -4" stroke="#a86f20"/><path d="M62 33l-5 -2" stroke="#fff0a6"/><path d="M79 44l0 0" stroke="#efc858"/><path d="M20 55l5 2" stroke="#a86f20"/><path d="M37 32l10 4" stroke="#efc858"/><path d="M54 43l-10 6" stroke="#fff0a6"/><path d="M71 54l-5 -6" stroke="#a86f20"/><path d="M88 31l0 -4" stroke="#efc858"/><path d="M29 42l5 -2" stroke="#efc858"/><path d="M46 53l10 0" stroke="#fff0a6"/><path d="M63 30l-10 2" stroke="#efc858"/><path d="M80 41l-5 4" stroke="#efc858"/><path d="M21 52l0 6" stroke="#a86f20"/><path d="M38 29l5 -6" stroke="#fff0a6"/><path d="M55 40l10 -4" stroke="#efc858"/><path d="M72 51l-10 -2" stroke="#a86f20"/><path d="M89 28l-5 0" stroke="#efc858"/><path d="M30 39l0 2" stroke="#fff0a6"/><path d="M47 50l5 4" stroke="#a86f20"/><path d="M64 27l10 6" stroke="#efc858"/><path d="M81 38l-10 -6" stroke="#efc858"/>
    </g>
  </svg>
